<svg width="668" height="532" viewBox="0 0 668 532" fill="none" xmlns="http://www.w3.org/2000/svg">
<path d="M515.729 0H152.27C137.362 0.0442694 123.073 5.98881 112.528 16.5302C101.989 27.0752 96.0443 41.3619 96 56.2701V283.73C96.0443 298.638 101.989 312.926 112.528 323.471C123.073 334.011 137.362 339.956 152.27 340H515.729C530.637 339.956 544.924 334.011 555.469 323.471C566.01 312.926 571.955 298.638 571.999 283.73V56.2701C571.955 41.3619 566.01 27.0752 555.469 16.5302C544.924 5.98881 530.637 0.0442694 515.729 0ZM314.624 183.598L225.377 251.597C222.343 253.758 218.727 254.942 215.003 254.999C209.684 255.042 204.648 252.586 201.404 248.371C198.627 244.773 197.405 240.21 198.011 235.712C198.62 231.207 201.007 227.132 204.632 224.398L276.203 169.998L204.632 115.598C199.775 111.895 197.26 105.878 198.043 99.8187C198.82 93.7591 202.773 88.5743 208.414 86.2192C214.047 83.8658 220.514 84.6963 225.377 88.4008L314.624 156.399C318.905 159.611 321.424 164.65 321.424 169.998C321.424 175.351 318.905 180.389 314.624 183.598ZM453.005 254.999H348.964C342.892 254.999 337.281 251.759 334.244 246.499C331.207 241.24 331.207 234.759 334.244 229.5C337.281 224.241 342.892 220.998 348.964 220.998H453.005C459.078 220.998 464.69 224.241 467.727 229.5C470.762 234.759 470.762 241.24 467.727 246.499C464.69 251.759 459.078 254.999 453.005 254.999Z" fill="url(#paint0_linear_1255_345)"/>
<path d="M534.729 17.7078H452.39C441.586 17.7078 432.828 26.466 432.828 37.2697V119.609C432.828 130.413 441.586 139.171 452.39 139.171H534.729C545.533 139.171 554.291 130.413 554.291 119.609V37.2697C554.291 26.466 545.533 17.7078 534.729 17.7078Z" fill="url(#paint1_linear_1255_345)"/>
<path d="M493.559 28.0405H443.16V78.44H493.559V28.0405Z" fill="#161616"/>
<path fill-rule="evenodd" clip-rule="evenodd" d="M469.81 41.9001H479.7V47.621V51.7475C483.312 50.8428 486 47.4263 486 43.6293C486 39.1946 482.333 35.6001 477.81 35.6001C473.893 35.6001 470.617 38.2968 469.81 41.9001Z" fill="white"/>
<path fill-rule="evenodd" clip-rule="evenodd" d="M469.943 52.9506C470.932 56.372 474.079 59.0363 477.81 59.0363C482.333 59.0363 486 55.12 486 50.6854C486 46.8884 483.312 43.7076 479.7 42.8704V52.9506H469.943Z" fill="white"/>
<path d="M457.02 35.6001H450.72V70.8801H457.02V35.6001Z" fill="white"/>
<path d="M485.999 43.1597H479.699V50.9717H485.999V43.1597Z" fill="white"/>
<path fill-rule="evenodd" clip-rule="evenodd" d="M450.72 41.9001V35.6001H478.566V41.9001H450.72Z" fill="white"/>
<path fill-rule="evenodd" clip-rule="evenodd" d="M450.72 59.0362V52.7354H478.566V59.0362H450.72Z" fill="white"/>
<path fill-rule="evenodd" clip-rule="evenodd" d="M476.275 55.3066L470.932 58.6449L478.578 70.8799H486.006L476.275 55.3066Z" fill="white"/>
<path fill-rule="evenodd" clip-rule="evenodd" d="M479.952 41.6477H475.92V41.9001C478.007 41.9001 479.7 43.5921 479.7 45.6804H479.952V41.6477Z" fill="white"/>
<path fill-rule="evenodd" clip-rule="evenodd" d="M479.952 52.9878H475.92V52.7354C478.007 52.7354 479.7 51.0433 479.7 48.9561H479.952V52.9878Z" fill="white"/>
<path d="M543.707 28.0405H493.308V78.44H543.707V28.0405Z" fill="#161616"/>
<path fill-rule="evenodd" clip-rule="evenodd" d="M536.148 43.7897C536.148 48.3134 532.431 51.9803 527.846 51.9803C526.22 51.9803 524.702 51.5177 523.421 50.7195H529.848V41.9001H519.767C520.633 38.2879 523.921 35.6001 527.846 35.6001C532.431 35.6001 536.148 39.267 536.148 43.7897Z" fill="white"/>
<path fill-rule="evenodd" clip-rule="evenodd" d="M536.148 48.0739C536.148 52.5976 532.481 56.2635 527.958 56.2635C524.648 56.2635 521.797 54.3015 520.506 51.4757H530.081V40.8917H524.018C525.187 40.2491 526.53 39.8843 527.958 39.8843C532.481 39.8843 536.148 43.5512 536.148 48.0739Z" fill="white"/>
<path fill-rule="evenodd" clip-rule="evenodd" d="M536.147 58.4055C536.147 62.9292 532.431 66.596 527.846 66.596C526.22 66.596 524.702 66.1344 523.42 65.3363H529.912V56.2634H519.833C520.786 52.7795 524.013 50.2158 527.846 50.2158C532.431 50.2158 536.147 53.8828 536.147 58.4055Z" fill="white"/>
<path fill-rule="evenodd" clip-rule="evenodd" d="M536.148 62.6894C536.148 67.2131 532.481 70.88 527.958 70.88C524.648 70.88 521.797 68.9169 520.506 66.0922H530.837V55.5082H524.018C525.187 54.8656 526.53 54.4998 527.958 54.4998C532.481 54.4998 536.148 58.1667 536.148 62.6894Z" fill="white"/>
<path d="M536.148 43.9158H529.848V47.6961H536.148V43.9158Z" fill="white"/>
<path fill-rule="evenodd" clip-rule="evenodd" d="M529.848 58.5317H536.148V62.8158H529.848V59.9177V58.5317Z" fill="white"/>
<path d="M527.832 35.6001H508.428V41.9001H527.832V35.6001Z" fill="white"/>
<path d="M528.588 64.5803H508.428V70.8802H528.588V64.5803Z" fill="white"/>
<path d="M528.588 49.9636H512.208V56.2636H528.588V49.9636Z" fill="white"/>
<path fill-rule="evenodd" clip-rule="evenodd" d="M510.948 41.903C510.906 41.901 510.864 41.9001 510.822 41.9001C509.628 41.9001 508.638 42.7735 508.457 43.9159H500.868C500.868 43.8738 500.867 43.8318 500.867 43.7897C500.867 39.267 504.534 35.6001 509.058 35.6001C512.93 35.6001 516.176 38.2879 517.029 41.9001H510.948V41.903Z" fill="white"/>
<path fill-rule="evenodd" clip-rule="evenodd" d="M510.948 64.5762C510.906 64.5791 510.864 64.5801 510.822 64.5801C509.628 64.5801 508.638 63.7066 508.457 62.5642H500.868C500.868 62.6053 500.867 62.6474 500.867 62.6895C500.867 67.2132 504.534 70.88 509.058 70.88C512.93 70.88 516.176 68.1912 517.029 64.5801H510.948V64.5762Z" fill="white"/>
<path fill-rule="evenodd" clip-rule="evenodd" d="M529.847 41.5215H526.067V41.9C528.155 41.9 529.847 43.5921 529.847 45.6804V41.5215Z" fill="white"/>
<path fill-rule="evenodd" clip-rule="evenodd" d="M529.847 50.8457H526.067V49.9634C528.155 49.9634 529.847 48.2713 529.847 46.1841V50.8457Z" fill="white"/>
<path fill-rule="evenodd" clip-rule="evenodd" d="M526.067 56.2634H530.1V60.0438H529.847C529.847 57.9565 528.155 56.2634 526.067 56.2634Z" fill="white"/>
<path fill-rule="evenodd" clip-rule="evenodd" d="M530.1 65.4614H526.067V64.5801C528.155 64.5801 529.847 62.8871 529.847 60.7998H530.1V65.4614Z" fill="white"/>
<path d="M493.559 78.1875H443.16V128.587H493.559V78.1875Z" fill="#161616"/>
<path d="M456.516 85.748H450.216V121.028H456.516V85.748Z" fill="white"/>
<path d="M476.677 92.048V85.748H450.217V92.048H476.677Z" fill="white"/>
<path d="M476.172 106.537V100.237H450.342V106.537H476.172Z" fill="white"/>
<path d="M477.432 121.028V114.728H450.217V121.028H477.432Z" fill="white"/>
<path fill-rule="evenodd" clip-rule="evenodd" d="M485.496 109.057C485.496 113.581 481.829 117.248 477.306 117.248C474.983 117.248 472.886 116.28 471.396 114.727H479.884V110.065V106.411H469.553C470.653 103.187 473.709 100.867 477.306 100.867C481.829 100.867 485.496 104.534 485.496 109.057Z" fill="white"/>
<path fill-rule="evenodd" clip-rule="evenodd" d="M485.496 112.838C485.496 117.36 481.824 121.027 477.294 121.027C473.415 121.027 470.166 118.339 469.311 114.727H479.19V105.908H472.921C474.187 105.11 475.687 104.648 477.294 104.648C481.824 104.648 485.496 108.315 485.496 112.838Z" fill="white"/>
<path fill-rule="evenodd" clip-rule="evenodd" d="M485.496 93.9377C485.496 98.4604 481.824 102.127 477.294 102.127C475.301 102.127 473.474 101.417 472.053 100.238H479.895V92.048H469.311C470.166 88.4359 473.415 85.748 477.294 85.748C481.824 85.748 485.496 89.414 485.496 93.9377Z" fill="white"/>
<path fill-rule="evenodd" clip-rule="evenodd" d="M485.514 98.2218C485.514 102.745 481.847 106.411 477.324 106.411C474.015 106.411 471.164 104.448 469.872 101.624H479.196V92.0481H471.942C473.382 90.7922 475.264 90.0312 477.324 90.0312C481.847 90.0312 485.514 93.6981 485.514 98.2218Z" fill="white"/>
<path fill-rule="evenodd" clip-rule="evenodd" d="M479.852 91.7957H475.316V92.049C475.349 92.048 475.382 92.048 475.415 92.048C477.504 92.048 479.196 93.7401 479.196 95.8273H479.852V91.7957Z" fill="white"/>
<path fill-rule="evenodd" clip-rule="evenodd" d="M479.196 96.4575C479.196 98.5457 477.504 100.238 475.416 100.238V100.615H479.448V96.3323H479.194C479.195 96.3734 479.196 96.4154 479.196 96.4575Z" fill="white"/>
<path fill-rule="evenodd" clip-rule="evenodd" d="M479.852 106.411H475.316V106.539C475.349 106.539 475.382 106.538 475.415 106.538C477.462 106.538 479.127 108.162 479.194 110.192H479.852V106.411Z" fill="white"/>
<path fill-rule="evenodd" clip-rule="evenodd" d="M479.196 110.948C479.196 113.035 477.504 114.727 475.416 114.727V115.232H479.448V110.948H479.196Z" fill="white"/>
<path d="M485.496 94.064H479.196V98.6004H485.496V94.064Z" fill="white"/>
<path d="M485.496 108.932H479.699V113.216H485.496V108.932Z" fill="white"/>
<path d="M543.707 78.1875H493.308V128.587H543.707V78.1875Z" fill="#161616"/>
<path d="M507.167 85.748H500.867V121.028H507.167V85.748Z" fill="white"/>
<path d="M536.167 121.051V114.751H500.887V121.051H536.167Z" fill="white"/>
<path d="M8.07102 505V487.606H23.6564V450.59H8.07102V433.196H46.1996V451.286C48.7972 444.699 52.0442 439.875 55.9405 436.814C59.9296 433.66 64.429 432.083 69.4386 432.083C71.5723 432.083 73.2422 432.222 74.4482 432.5C75.747 432.778 77.2777 433.335 79.0403 434.17V454.347C77.2777 453.512 75.144 452.909 72.6392 452.538C70.2271 452.075 67.8151 451.843 65.4031 451.843C61.5067 451.843 57.8423 452.724 54.4098 454.487C50.9773 456.156 48.2406 458.476 46.1996 461.444V487.606H62.62V505H8.07102ZM123.794 506.531C116.001 506.531 108.719 505.139 101.947 502.356C95.2672 499.573 89.7473 495.723 85.3871 490.806L99.8593 477.447C103.477 481.344 106.956 484.034 110.296 485.518C113.728 487.003 118.135 487.745 123.516 487.745C127.041 487.745 130.102 487.281 132.7 486.353C135.39 485.333 137.431 483.941 138.823 482.178C140.307 480.323 141.049 478.189 141.049 475.777C141.049 473.644 140.493 471.835 139.379 470.35C138.359 468.866 136.875 467.706 134.926 466.871C133.071 466.036 130.845 465.619 128.247 465.619H115.723V447.946H126.021C130.01 447.946 133.117 447.019 135.344 445.163C137.57 443.215 138.684 440.525 138.684 437.092C138.684 434.773 137.988 432.732 136.596 430.969C135.298 429.114 133.489 427.676 131.169 426.655C128.943 425.635 126.345 425.125 123.377 425.125C118.645 425.125 114.61 425.96 111.27 427.63C108.023 429.207 104.498 432.083 100.694 436.257L86.0829 423.037C90.7214 417.749 96.3804 413.621 103.06 410.653C109.832 407.591 116.883 406.06 124.212 406.06C131.355 406.06 137.617 407.266 142.998 409.678C148.378 411.998 152.599 415.291 155.661 419.559C158.722 423.733 160.253 428.604 160.253 434.17C160.253 439.458 158.537 444.096 155.104 448.085C151.672 452.075 147.219 454.858 141.745 456.435C148.146 457.641 153.249 460.146 157.052 463.949C160.856 467.66 162.758 472.206 162.758 477.586C162.758 483.153 161.088 488.116 157.748 492.476C154.408 496.836 149.816 500.269 143.972 502.774C138.127 505.278 131.401 506.531 123.794 506.531ZM175.088 504.861V405.086L197.631 401.886V439.179C199.858 436.953 202.363 435.237 205.146 434.031C208.022 432.732 211.037 432.083 214.191 432.083C220.035 432.083 225.37 433.706 230.194 436.953C235.018 440.2 238.868 444.607 241.744 450.173C244.619 455.739 246.057 462.047 246.057 469.098C246.057 476.056 244.619 482.364 241.744 488.023C238.868 493.589 235.018 497.996 230.194 501.243C225.37 504.49 220.035 506.113 214.191 506.113C210.758 506.113 207.558 505.417 204.589 504.026C201.713 502.634 199.116 500.64 196.796 498.042V504.861H175.088ZM208.903 488.301C212.057 488.301 214.747 487.513 216.974 485.936C219.2 484.359 220.917 482.132 222.123 479.256C223.329 476.288 223.932 472.901 223.932 469.098C223.932 465.202 223.329 461.815 222.123 458.94C220.917 456.064 219.2 453.837 216.974 452.26C214.747 450.683 212.057 449.894 208.903 449.894C206.769 449.894 204.728 450.312 202.78 451.147C200.925 451.889 199.208 452.956 197.631 454.347V483.848C199.208 485.24 200.925 486.353 202.78 487.188C204.728 487.93 206.769 488.301 208.903 488.301ZM309.04 506.392C299.114 506.392 291.6 504.026 286.497 499.295C281.395 494.563 278.844 487.559 278.844 478.282V421.228H254.074V403.834H301.387V475.916C301.387 479.906 302.361 482.828 304.309 484.683C306.257 486.539 309.365 487.466 313.633 487.466C315.674 487.466 317.622 487.281 319.477 486.91C321.425 486.539 323.559 485.889 325.878 484.962V503.191C324.394 503.933 321.982 504.629 318.642 505.278C315.302 506.02 312.102 506.392 309.04 506.392ZM342.383 531.579V516.132H408.621V531.579H342.383ZM472.579 506.392C462.559 506.392 454.999 504.165 449.896 499.712C444.794 495.166 442.243 488.487 442.243 479.674V450.59H421.23V433.196H442.243V413.297L464.786 408.704V433.196H491.921V450.59H464.786V475.221C464.786 479.766 465.667 482.967 467.43 484.822C469.285 486.585 472.486 487.466 477.032 487.466C479.073 487.466 481.253 487.327 483.572 487.049C485.891 486.771 488.813 486.168 492.339 485.24V503.469C489.556 504.211 486.309 504.861 482.598 505.417C478.98 506.067 475.64 506.392 472.579 506.392ZM532.083 506.113C527.444 506.113 523.316 505.093 519.698 503.052C516.173 500.918 513.39 498.042 511.349 494.424C509.308 490.713 508.287 486.446 508.287 481.622V433.196H530.83V475.082C530.83 479.071 531.897 482.318 534.031 484.822C536.257 487.234 539.18 488.44 542.798 488.44C544.932 488.44 546.833 488.116 548.503 487.466C550.266 486.724 551.889 485.611 553.374 484.127V433.196H575.917V505H553.374V495.259C547.807 502.495 540.71 506.113 532.083 506.113ZM625.958 422.342C622.062 422.342 618.722 420.95 615.939 418.167C613.156 415.384 611.765 412.044 611.765 408.148C611.765 404.251 613.156 400.912 615.939 398.129C618.722 395.345 622.062 393.954 625.958 393.954C629.855 393.954 633.194 395.345 635.978 398.129C638.761 400.912 640.152 404.251 640.152 408.148C640.152 412.044 638.761 415.384 635.978 418.167C633.194 420.95 629.855 422.342 625.958 422.342ZM644.884 506.392C634.957 506.392 627.443 504.026 622.34 499.295C617.238 494.563 614.687 487.559 614.687 478.282V450.59H589.917V433.196H637.23V475.916C637.23 479.906 638.204 482.828 640.152 484.683C642.1 486.539 645.208 487.466 649.476 487.466C651.517 487.466 653.465 487.281 655.32 486.91C657.268 486.539 659.402 485.889 661.721 484.962V503.191C660.237 503.933 657.825 504.629 654.485 505.278C651.146 506.02 647.945 506.392 644.884 506.392Z" fill="url(#paint2_linear_1255_345)"/>
<defs>
<linearGradient id="paint0_linear_1255_345" x1="333.998" y1="0.00106933" x2="333.998" y2="340.001" gradientUnits="userSpaceOnUse">
<stop stop-color="#B32BD5"/>
<stop offset="1" stop-color="#DA3C8E"/>
</linearGradient>
<linearGradient id="paint1_linear_1255_345" x1="493.56" y1="17.7078" x2="493.56" y2="139.171" gradientUnits="userSpaceOnUse">
<stop stop-color="#161616"/>
<stop offset="1"/>
</linearGradient>
<linearGradient id="paint2_linear_1255_345" x1="334" y1="396" x2="334" y2="516" gradientUnits="userSpaceOnUse">
<stop stop-color="#B42BD5"/>
<stop offset="1" stop-color="#D83C92"/>
</linearGradient>
</defs>
</svg>
