<!--
  -   Copyright (c) 2025 R3BL LLC
  -   All rights reserved.
  -
  -   Licensed under the Apache License, Version 2.0 (the "License");
  -   you may not use this file except in compliance with the License.
  -   You may obtain a copy of the License at
  -
  -   http://www.apache.org/licenses/LICENSE-2.0
  -
  -   Unless required by applicable law or agreed to in writing, software
  -   distributed under the License is distributed on an "AS IS" BASIS,
  -   WITHOUT WARRANTIES OR CONDITIONS OF ANY KIND, either express or implied.
  -   See the License for the specific language governing permissions and
  -   limitations under the License.
  -->

<svg width="751" height="620" viewBox="0 0 751 620" fill="none" xmlns="http://www.w3.org/2000/svg">
<path d="M556.729 0H193.27C178.362 0.0442694 164.073 5.98881 153.528 16.5302C142.989 27.0752 137.044 41.3619 137 56.2701V283.73C137.044 298.638 142.989 312.926 153.528 323.471C164.073 334.011 178.362 339.956 193.27 340H556.729C571.637 339.956 585.924 334.011 596.469 323.471C607.01 312.926 612.955 298.638 612.999 283.73V56.2701C612.955 41.3619 607.01 27.0752 596.469 16.5302C585.924 5.98881 571.637 0.0442694 556.729 0ZM355.624 183.598L266.377 251.597C263.343 253.758 259.727 254.942 256.003 254.999C250.684 255.042 245.648 252.586 242.404 248.371C239.627 244.773 238.405 240.21 239.011 235.712C239.62 231.207 242.007 227.132 245.632 224.398L317.203 169.998L245.632 115.598C240.775 111.895 238.26 105.878 239.043 99.8187C239.82 93.7591 243.773 88.5743 249.414 86.2192C255.047 83.8658 261.514 84.6963 266.377 88.4008L355.624 156.399C359.905 159.611 362.424 164.65 362.424 169.998C362.424 175.351 359.905 180.389 355.624 183.598ZM494.005 254.999H389.964C383.892 254.999 378.281 251.759 375.244 246.499C372.207 241.24 372.207 234.759 375.244 229.5C378.281 224.241 383.892 220.998 389.964 220.998H494.005C500.078 220.998 505.69 224.241 508.727 229.5C511.762 234.759 511.762 241.24 508.727 246.499C505.69 251.759 500.078 254.999 494.005 254.999Z" fill="url(#paint0_linear_1255_188)"/>
<path d="M575.729 17.7078H493.39C482.586 17.7078 473.828 26.466 473.828 37.2697V119.609C473.828 130.413 482.586 139.171 493.39 139.171H575.729C586.533 139.171 595.291 130.413 595.291 119.609V37.2697C595.291 26.466 586.533 17.7078 575.729 17.7078Z" fill="url(#paint1_linear_1255_188)"/>
<path d="M534.559 28.0405H484.16V78.44H534.559V28.0405Z" fill="#161616"/>
<path fill-rule="evenodd" clip-rule="evenodd" d="M510.81 41.9001H520.7V47.621V51.7475C524.312 50.8428 527 47.4263 527 43.6293C527 39.1946 523.333 35.6001 518.81 35.6001C514.893 35.6001 511.617 38.2968 510.81 41.9001Z" fill="white"/>
<path fill-rule="evenodd" clip-rule="evenodd" d="M510.943 52.9506C511.932 56.372 515.079 59.0363 518.81 59.0363C523.333 59.0363 526.999 55.12 526.999 50.6854C526.999 46.8884 524.312 43.7076 520.699 42.8704V52.9506H510.943Z" fill="white"/>
<path d="M498.02 35.6001H491.72V70.8801H498.02V35.6001Z" fill="white"/>
<path d="M527 43.1597H520.7V50.9717H527V43.1597Z" fill="white"/>
<path fill-rule="evenodd" clip-rule="evenodd" d="M491.72 41.9001V35.6001H519.566V41.9001H491.72Z" fill="white"/>
<path fill-rule="evenodd" clip-rule="evenodd" d="M491.72 59.0362V52.7354H519.566V59.0362H491.72Z" fill="white"/>
<path fill-rule="evenodd" clip-rule="evenodd" d="M517.275 55.3066L511.932 58.6449L519.578 70.8799H527.006L517.275 55.3066Z" fill="white"/>
<path fill-rule="evenodd" clip-rule="evenodd" d="M520.952 41.6477H516.92V41.9001C519.007 41.9001 520.7 43.5921 520.7 45.6804H520.952V41.6477Z" fill="white"/>
<path fill-rule="evenodd" clip-rule="evenodd" d="M520.952 52.9878H516.92V52.7354C519.007 52.7354 520.7 51.0433 520.7 48.9561H520.952V52.9878Z" fill="white"/>
<path d="M584.707 28.0405H534.308V78.44H584.707V28.0405Z" fill="#161616"/>
<path fill-rule="evenodd" clip-rule="evenodd" d="M577.148 43.7897C577.148 48.3134 573.431 51.9803 568.846 51.9803C567.22 51.9803 565.702 51.5177 564.421 50.7195H570.848V41.9001H560.767C561.633 38.2879 564.921 35.6001 568.846 35.6001C573.431 35.6001 577.148 39.267 577.148 43.7897Z" fill="white"/>
<path fill-rule="evenodd" clip-rule="evenodd" d="M577.147 48.0739C577.147 52.5976 573.481 56.2635 568.958 56.2635C565.648 56.2635 562.797 54.3015 561.506 51.4757H571.081V40.8917H565.018C566.187 40.2491 567.53 39.8843 568.958 39.8843C573.481 39.8843 577.147 43.5512 577.147 48.0739Z" fill="white"/>
<path fill-rule="evenodd" clip-rule="evenodd" d="M577.148 58.4055C577.148 62.9292 573.431 66.596 568.846 66.596C567.22 66.596 565.702 66.1344 564.421 65.3363H570.912V56.2634H560.833C561.787 52.7795 565.013 50.2158 568.846 50.2158C573.431 50.2158 577.148 53.8828 577.148 58.4055Z" fill="white"/>
<path fill-rule="evenodd" clip-rule="evenodd" d="M577.147 62.6894C577.147 67.2131 573.481 70.88 568.958 70.88C565.648 70.88 562.797 68.9169 561.506 66.0922H571.837V55.5082H565.018C566.187 54.8656 567.53 54.4998 568.958 54.4998C573.481 54.4998 577.147 58.1667 577.147 62.6894Z" fill="white"/>
<path d="M577.148 43.9158H570.848V47.6961H577.148V43.9158Z" fill="white"/>
<path fill-rule="evenodd" clip-rule="evenodd" d="M570.848 58.5317H577.148V62.8158H570.848V59.9177V58.5317Z" fill="white"/>
<path d="M568.832 35.6001H549.428V41.9001H568.832V35.6001Z" fill="white"/>
<path d="M569.588 64.5803H549.428V70.8802H569.588V64.5803Z" fill="white"/>
<path d="M569.588 49.9636H553.208V56.2636H569.588V49.9636Z" fill="white"/>
<path fill-rule="evenodd" clip-rule="evenodd" d="M551.948 41.903C551.906 41.901 551.864 41.9001 551.822 41.9001C550.628 41.9001 549.639 42.7735 549.458 43.9159H541.869C541.869 43.8738 541.868 43.8318 541.868 43.7897C541.868 39.267 545.534 35.6001 550.058 35.6001C553.93 35.6001 557.176 38.2879 558.029 41.9001H551.948V41.903Z" fill="white"/>
<path fill-rule="evenodd" clip-rule="evenodd" d="M551.948 64.5762C551.906 64.5791 551.864 64.5801 551.822 64.5801C550.628 64.5801 549.639 63.7066 549.458 62.5642H541.869C541.869 62.6053 541.868 62.6474 541.868 62.6895C541.868 67.2132 545.534 70.88 550.058 70.88C553.93 70.88 557.176 68.1912 558.029 64.5801H551.948V64.5762Z" fill="white"/>
<path fill-rule="evenodd" clip-rule="evenodd" d="M570.848 41.5215H567.067V41.9C569.155 41.9 570.848 43.5921 570.848 45.6804V41.5215Z" fill="white"/>
<path fill-rule="evenodd" clip-rule="evenodd" d="M570.848 50.8457H567.067V49.9634C569.155 49.9634 570.848 48.2713 570.848 46.1841V50.8457Z" fill="white"/>
<path fill-rule="evenodd" clip-rule="evenodd" d="M567.067 56.2634H571.1V60.0438H570.848C570.848 57.9565 569.155 56.2634 567.067 56.2634Z" fill="white"/>
<path fill-rule="evenodd" clip-rule="evenodd" d="M571.1 65.4614H567.067V64.5801C569.155 64.5801 570.848 62.8871 570.848 60.7998H571.1V65.4614Z" fill="white"/>
<path d="M534.559 78.1875H484.16V128.587H534.559V78.1875Z" fill="#161616"/>
<path d="M497.516 85.748H491.216V121.028H497.516V85.748Z" fill="white"/>
<path d="M517.677 92.048V85.748H491.217V92.048H517.677Z" fill="white"/>
<path d="M517.172 106.537V100.237H491.342V106.537H517.172Z" fill="white"/>
<path d="M518.432 121.028V114.728H491.217V121.028H518.432Z" fill="white"/>
<path fill-rule="evenodd" clip-rule="evenodd" d="M526.496 109.057C526.496 113.581 522.829 117.248 518.306 117.248C515.983 117.248 513.886 116.28 512.396 114.727H520.884V110.065V106.411H510.553C511.653 103.187 514.709 100.867 518.306 100.867C522.829 100.867 526.496 104.534 526.496 109.057Z" fill="white"/>
<path fill-rule="evenodd" clip-rule="evenodd" d="M526.496 112.838C526.496 117.36 522.824 121.027 518.293 121.027C514.415 121.027 511.166 118.339 510.311 114.727H520.19V105.908H513.921C515.187 105.11 516.686 104.648 518.293 104.648C522.824 104.648 526.496 108.315 526.496 112.838Z" fill="white"/>
<path fill-rule="evenodd" clip-rule="evenodd" d="M526.496 93.9377C526.496 98.4604 522.824 102.127 518.293 102.127C516.301 102.127 514.474 101.417 513.053 100.238H520.895V92.048H510.311C511.166 88.4359 514.415 85.748 518.293 85.748C522.824 85.748 526.496 89.414 526.496 93.9377Z" fill="white"/>
<path fill-rule="evenodd" clip-rule="evenodd" d="M526.514 98.2218C526.514 102.745 522.847 106.411 518.324 106.411C515.015 106.411 512.164 104.448 510.872 101.624H520.196V92.0481H512.942C514.382 90.7922 516.264 90.0312 518.324 90.0312C522.847 90.0312 526.514 93.6981 526.514 98.2218Z" fill="white"/>
<path fill-rule="evenodd" clip-rule="evenodd" d="M520.852 91.7957H516.316V92.049C516.349 92.048 516.382 92.048 516.415 92.048C518.504 92.048 520.196 93.7401 520.196 95.8273H520.852V91.7957Z" fill="white"/>
<path fill-rule="evenodd" clip-rule="evenodd" d="M520.196 96.4575C520.196 98.5457 518.504 100.238 516.416 100.238V100.615H520.448V96.3323H520.194C520.195 96.3734 520.196 96.4154 520.196 96.4575Z" fill="white"/>
<path fill-rule="evenodd" clip-rule="evenodd" d="M520.852 106.411H516.316V106.539C516.349 106.539 516.382 106.538 516.415 106.538C518.462 106.538 520.127 108.162 520.194 110.192H520.852V106.411Z" fill="white"/>
<path fill-rule="evenodd" clip-rule="evenodd" d="M520.196 110.948C520.196 113.035 518.504 114.727 516.416 114.727V115.232H520.448V110.948H520.196Z" fill="white"/>
<path d="M526.496 94.064H520.196V98.6004H526.496V94.064Z" fill="white"/>
<path d="M526.496 108.932H520.7V113.216H526.496V108.932Z" fill="white"/>
<path d="M584.707 78.1875H534.308V128.587H584.707V78.1875Z" fill="#161616"/>
<path d="M548.167 85.748H541.868V121.028H548.167V85.748Z" fill="white"/>
<path d="M577.167 121.051V114.751H541.887V121.051H577.167Z" fill="white"/>
<path d="M8.09577 505V487.606H23.6812V450.59H8.09577V433.196H46.2244V451.286C48.8219 444.699 52.0689 439.875 55.9653 436.814C59.9544 433.66 64.4538 432.083 69.4633 432.083C71.5971 432.083 73.2669 432.222 74.4729 432.5C75.7717 432.778 77.3024 433.335 79.0651 434.17V454.347C77.3024 453.512 75.1687 452.909 72.6639 452.538C70.2519 452.075 67.8399 451.843 65.4278 451.843C61.5315 451.843 57.8671 452.724 54.4346 454.487C51.0021 456.156 48.2653 458.476 46.2244 461.444V487.606H62.6447V505H8.09577ZM123.819 506.531C116.026 506.531 108.744 505.139 101.971 502.356C95.2919 499.573 89.7721 495.723 85.4119 490.806L99.884 477.447C103.502 481.344 106.981 484.034 110.321 485.518C113.753 487.003 118.16 487.745 123.54 487.745C127.066 487.745 130.127 487.281 132.725 486.353C135.415 485.333 137.456 483.941 138.848 482.178C140.332 480.323 141.074 478.189 141.074 475.777C141.074 473.644 140.517 471.835 139.404 470.35C138.384 468.866 136.899 467.706 134.951 466.871C133.096 466.036 130.869 465.619 128.272 465.619H115.748V447.946H126.045C130.034 447.946 133.142 447.019 135.369 445.163C137.595 443.215 138.708 440.525 138.708 437.092C138.708 434.773 138.013 432.732 136.621 430.969C135.322 429.114 133.513 427.676 131.194 426.655C128.968 425.635 126.37 425.125 123.401 425.125C118.67 425.125 114.635 425.96 111.295 427.63C108.048 429.207 104.523 432.083 100.719 436.257L86.1076 423.037C90.7462 417.749 96.4052 413.621 103.085 410.653C109.857 407.591 116.907 406.06 124.236 406.06C131.38 406.06 137.642 407.266 143.022 409.678C148.403 411.998 152.624 415.291 155.685 419.559C158.747 423.733 160.278 428.604 160.278 434.17C160.278 439.458 158.561 444.096 155.129 448.085C151.696 452.075 147.243 454.858 141.77 456.435C148.171 457.641 153.273 460.146 157.077 463.949C160.881 467.66 162.782 472.206 162.782 477.586C162.782 483.153 161.112 488.116 157.773 492.476C154.433 496.836 149.841 500.269 143.996 502.774C138.152 505.278 131.426 506.531 123.819 506.531ZM175.113 504.861V405.086L197.656 401.886V439.179C199.882 436.953 202.387 435.237 205.17 434.031C208.046 432.732 211.061 432.083 214.216 432.083C220.06 432.083 225.394 433.706 230.218 436.953C235.042 440.2 238.892 444.607 241.768 450.173C244.644 455.739 246.082 462.047 246.082 469.098C246.082 476.056 244.644 482.364 241.768 488.023C238.892 493.589 235.042 497.996 230.218 501.243C225.394 504.49 220.06 506.113 214.216 506.113C210.783 506.113 207.582 505.417 204.614 504.026C201.738 502.634 199.14 500.64 196.821 498.042V504.861H175.113ZM208.928 488.301C212.082 488.301 214.772 487.513 216.999 485.936C219.225 484.359 220.941 482.132 222.147 479.256C223.353 476.288 223.956 472.901 223.956 469.098C223.956 465.202 223.353 461.815 222.147 458.94C220.941 456.064 219.225 453.837 216.999 452.26C214.772 450.683 212.082 449.894 208.928 449.894C206.794 449.894 204.753 450.312 202.805 451.147C200.949 451.889 199.233 452.956 197.656 454.347V483.848C199.233 485.24 200.949 486.353 202.805 487.188C204.753 487.93 206.794 488.301 208.928 488.301ZM309.065 506.392C299.139 506.392 291.624 504.026 286.522 499.295C281.42 494.563 278.868 487.559 278.868 478.282V421.228H254.099V403.834H301.412V475.916C301.412 479.906 302.386 482.828 304.334 484.683C306.282 486.539 309.39 487.466 313.657 487.466C315.698 487.466 317.646 487.281 319.502 486.91C321.45 486.539 323.584 485.889 325.903 484.962V503.191C324.419 503.933 322.007 504.629 318.667 505.278C315.327 506.02 312.127 506.392 309.065 506.392ZM349.923 474.525V455.739H401.132V474.525H349.923ZM461.61 506.392C454.188 506.392 447.509 504.768 441.572 501.521C435.634 498.181 430.949 493.728 427.517 488.162C424.084 482.503 422.368 476.195 422.368 469.237C422.368 462.186 424.084 455.878 427.517 450.312C430.949 444.746 435.634 440.339 441.572 437.092C447.509 433.752 454.188 432.083 461.61 432.083C469.124 432.083 475.897 433.66 481.927 436.814C487.957 439.968 492.642 444.143 495.981 449.338L479.004 461.723C477.427 458.476 475.108 455.924 472.047 454.069C468.985 452.214 465.553 451.286 461.749 451.286C458.502 451.286 455.58 452.075 452.982 453.652C450.478 455.229 448.483 457.362 446.999 460.053C445.514 462.743 444.772 465.805 444.772 469.237C444.772 472.67 445.514 475.731 446.999 478.421C448.483 481.112 450.478 483.245 452.982 484.822C455.58 486.4 458.502 487.188 461.749 487.188C465.553 487.188 468.985 486.26 472.047 484.405C475.108 482.457 477.427 479.906 479.004 476.751L495.981 489.136C492.642 494.331 487.957 498.506 481.927 501.66C475.897 504.814 469.124 506.392 461.61 506.392ZM505.111 505V433.196H523.48V439.179C525.15 436.86 526.959 435.098 528.907 433.892C530.948 432.686 533.174 432.083 535.586 432.083C538.555 432.083 541.199 432.825 543.518 434.309C545.93 435.793 547.786 437.881 549.085 440.571C550.94 437.788 553.074 435.701 555.486 434.309C557.99 432.825 560.774 432.083 563.835 432.083C568.474 432.083 572.277 433.799 575.246 437.231C578.214 440.571 579.699 444.931 579.699 450.312V505H561.33V456.296C561.33 453.884 560.82 451.982 559.8 450.59C558.779 449.106 557.341 448.364 555.486 448.364C554.744 448.364 554.048 448.503 553.398 448.781C552.749 448.967 552.146 449.291 551.589 449.755C551.589 450.034 551.589 450.358 551.589 450.729C551.589 451.008 551.589 451.332 551.589 451.703V505H533.221V456.296C533.221 453.884 532.711 451.982 531.69 450.59C530.67 449.106 529.232 448.364 527.376 448.364C526.727 448.364 526.077 448.456 525.428 448.642C524.779 448.828 524.129 449.152 523.48 449.616V505H505.111ZM620.278 506.113C614.433 506.113 609.099 504.49 604.275 501.243C599.451 497.996 595.601 493.589 592.725 488.023C589.849 482.364 588.411 476.056 588.411 469.098C588.411 462.047 589.849 455.739 592.725 450.173C595.601 444.607 599.451 440.2 604.275 436.953C609.099 433.706 614.433 432.083 620.278 432.083C623.525 432.083 626.54 432.732 629.323 434.031C632.106 435.237 634.611 436.953 636.837 439.179V405.643L659.38 402.442V505H637.672V498.042C635.353 500.64 632.709 502.634 629.74 504.026C626.864 505.417 623.71 506.113 620.278 506.113ZM625.566 488.301C627.699 488.301 629.74 487.93 631.688 487.188C633.637 486.353 635.353 485.24 636.837 483.848V454.347C635.353 452.956 633.637 451.889 631.688 451.147C629.74 450.312 627.699 449.894 625.566 449.894C622.504 449.894 619.814 450.683 617.495 452.26C615.268 453.837 613.552 456.064 612.346 458.94C611.14 461.815 610.537 465.202 610.537 469.098C610.537 472.901 611.14 476.288 612.346 479.256C613.552 482.132 615.268 484.359 617.495 485.936C619.814 487.513 622.504 488.301 625.566 488.301ZM675.607 505V487.606H691.193V450.59H675.607V433.196H713.736V451.286C716.333 444.699 719.58 439.875 723.477 436.814C727.466 433.66 731.965 432.083 736.975 432.083C739.109 432.083 740.778 432.222 741.984 432.5C743.283 432.778 744.814 433.335 746.577 434.17V454.347C744.814 453.512 742.68 452.909 740.175 452.538C737.763 452.075 735.351 451.843 732.939 451.843C729.043 451.843 725.379 452.724 721.946 454.487C718.514 456.156 715.777 458.476 713.736 461.444V487.606H730.156V505H675.607ZM61.137 604.358C58.2379 602.993 55.6799 601.134 53.463 598.781C51.246 596.462 49.5066 593.733 48.2447 590.595C47.0168 587.458 46.4029 584.064 46.4029 580.415C46.4029 576.731 47.0168 573.338 48.2447 570.234C49.5066 567.096 51.246 564.35 53.463 561.997C55.6799 559.644 58.2379 557.802 61.137 556.472L62.7229 559.388C58.596 561.332 55.4412 564.129 53.2583 567.778C51.0755 571.393 49.9841 575.606 49.9841 580.415C49.9841 585.224 51.0755 589.436 53.2583 593.051C55.4412 596.701 58.596 599.497 62.7229 601.441L61.137 604.358ZM84.7018 593.512C82.3143 593.512 80.1656 592.949 78.2556 591.823C76.3456 590.664 74.8279 589.112 73.7024 587.168C72.6109 585.19 72.0652 582.973 72.0652 580.517C72.0652 578.061 72.5939 575.861 73.6512 573.917C74.7085 571.973 76.141 570.438 77.9486 569.313C79.7904 568.187 81.8368 567.625 84.0878 567.625C86.4412 567.625 88.5388 568.187 90.3805 569.313C92.2223 570.404 93.6718 571.905 94.7291 573.815C95.7864 575.691 96.3151 577.823 96.3151 580.21V581.336H75.6976C75.834 583.041 76.3115 584.576 77.1301 585.94C77.9486 587.27 79.023 588.327 80.3532 589.112C81.7174 589.862 83.2181 590.237 84.8552 590.237C86.3218 590.237 87.6861 589.965 88.948 589.419C90.2441 588.839 91.3184 588.055 92.1711 587.065L94.7803 589.368C93.4501 590.732 91.9324 591.772 90.227 592.488C88.5217 593.171 86.6799 593.512 84.7018 593.512ZM75.7999 578.573H92.6316C92.4269 577.072 91.9153 575.742 91.0968 574.582C90.3123 573.423 89.3062 572.519 88.0783 571.871C86.8846 571.189 85.5374 570.848 84.0367 570.848C82.6383 570.848 81.3593 571.172 80.1997 571.82C79.04 572.468 78.068 573.372 77.2836 574.531C76.5332 575.691 76.0387 577.038 75.7999 578.573ZM112.513 593.512C110.705 593.512 109.085 593.188 107.653 592.54C106.254 591.892 105.163 591.005 104.378 589.879C103.594 588.72 103.202 587.389 103.202 585.889C103.202 584.388 103.594 583.075 104.378 581.949C105.197 580.824 106.322 579.954 107.755 579.34C109.222 578.726 110.91 578.419 112.82 578.419C114.32 578.419 115.719 578.573 117.015 578.88C118.311 579.153 119.539 579.63 120.698 580.312V577.447C120.698 575.23 120.136 573.559 119.01 572.434C117.885 571.308 116.213 570.745 113.996 570.745C112.735 570.745 111.473 570.933 110.211 571.308C108.949 571.649 107.533 572.263 105.964 573.15L104.43 570.336C106.237 569.347 107.96 568.648 109.597 568.239C111.234 567.829 112.854 567.625 114.457 567.625C117.629 567.625 120.067 568.426 121.773 570.029C123.512 571.632 124.382 573.934 124.382 576.936V593H120.698V590.135C119.539 591.295 118.277 592.147 116.913 592.693C115.582 593.239 114.116 593.512 112.513 593.512ZM106.783 585.786C106.783 587.253 107.38 588.43 108.573 589.316C109.767 590.203 111.336 590.647 113.28 590.647C114.747 590.647 116.077 590.425 117.271 589.982C118.499 589.504 119.641 588.754 120.698 587.731V582.921C119.641 582.273 118.516 581.813 117.322 581.54C116.128 581.267 114.815 581.131 113.383 581.131C111.404 581.131 109.801 581.557 108.573 582.41C107.38 583.263 106.783 584.388 106.783 585.786ZM134.85 593V589.93H141.705V571.104H134.85V568.034H145.44V573.61C146.19 571.7 147.316 570.234 148.816 569.211C150.317 568.153 152.057 567.625 154.035 567.625C154.819 567.625 155.518 567.693 156.132 567.829C156.746 567.932 157.48 568.119 158.332 568.392V571.82C157.48 571.547 156.661 571.325 155.876 571.155C155.126 570.984 154.376 570.899 153.625 570.899C151.784 570.899 150.147 571.376 148.714 572.331C147.282 573.286 146.19 574.651 145.44 576.424V589.93H152.705V593H134.85ZM181.999 593.512C179.373 593.512 177.361 592.898 175.962 591.67C174.564 590.442 173.865 588.6 173.865 586.145V558.876H164.605V555.807H177.6V585.786C177.6 587.355 177.975 588.481 178.725 589.163C179.475 589.845 180.584 590.186 182.05 590.186C182.937 590.186 183.841 590.101 184.762 589.93C185.683 589.726 186.706 589.402 187.832 588.958V592.335C186.842 592.676 185.853 592.949 184.864 593.153C183.909 593.392 182.954 593.512 181.999 593.512ZM198.044 604.204C197.498 604.204 196.918 604.17 196.304 604.102C195.724 604.034 195.144 603.931 194.565 603.795V600.265C195.213 600.401 195.775 600.503 196.253 600.572C196.765 600.674 197.225 600.725 197.634 600.725C198.794 600.725 199.766 600.486 200.55 600.009C201.335 599.531 201.966 598.713 202.443 597.553L204.336 593.153L194.207 568.034H198.299L206.485 588.703L214.977 568.034H219.019L205.871 598.679C205.291 600.009 204.643 601.083 203.927 601.902C203.245 602.72 202.426 603.3 201.471 603.641C200.55 604.016 199.408 604.204 198.044 604.204ZM265.893 593.512C264.085 593.512 262.465 593.188 261.033 592.54C259.634 591.892 258.543 591.005 257.758 589.879C256.974 588.72 256.582 587.389 256.582 585.889C256.582 584.388 256.974 583.075 257.758 581.949C258.577 580.824 259.703 579.954 261.135 579.34C262.602 578.726 264.29 578.419 266.2 578.419C267.701 578.419 269.099 578.573 270.395 578.88C271.691 579.153 272.919 579.63 274.078 580.312V577.447C274.078 575.23 273.516 573.559 272.39 572.434C271.265 571.308 269.593 570.745 267.377 570.745C266.115 570.745 264.853 570.933 263.591 571.308C262.329 571.649 260.913 572.263 259.344 573.15L257.81 570.336C259.617 569.347 261.34 568.648 262.977 568.239C264.614 567.829 266.234 567.625 267.837 567.625C271.009 567.625 273.448 568.426 275.153 570.029C276.892 571.632 277.762 573.934 277.762 576.936V593H274.078V590.135C272.919 591.295 271.657 592.147 270.293 592.693C268.962 593.239 267.496 593.512 265.893 593.512ZM260.163 585.786C260.163 587.253 260.76 588.43 261.954 589.316C263.147 590.203 264.716 590.647 266.66 590.647C268.127 590.647 269.457 590.425 270.651 589.982C271.879 589.504 273.021 588.754 274.078 587.731V582.921C273.021 582.273 271.896 581.813 270.702 581.54C269.508 581.267 268.195 581.131 266.763 581.131C264.784 581.131 263.181 581.557 261.954 582.41C260.76 583.263 260.163 584.388 260.163 585.786ZM299.229 593.512C296.876 593.512 294.744 592.949 292.834 591.823C290.958 590.664 289.458 589.112 288.332 587.168C287.241 585.224 286.695 583.024 286.695 580.568C286.695 578.112 287.241 575.913 288.332 573.968C289.458 571.99 290.958 570.438 292.834 569.313C294.744 568.187 296.876 567.625 299.229 567.625C301.548 567.625 303.646 568.136 305.522 569.159C307.398 570.183 308.881 571.564 309.973 573.303L306.954 575.196C306.17 573.9 305.096 572.877 303.731 572.127C302.401 571.342 300.9 570.95 299.229 570.95C297.524 570.95 296.006 571.376 294.676 572.229C293.346 573.048 292.288 574.173 291.504 575.606C290.754 577.038 290.379 578.692 290.379 580.568C290.379 582.41 290.754 584.064 291.504 585.531C292.288 586.963 293.346 588.106 294.676 588.958C296.006 589.777 297.524 590.186 299.229 590.186C300.9 590.186 302.401 589.811 303.731 589.061C305.096 588.276 306.17 587.236 306.954 585.94L309.973 587.833C308.881 589.572 307.398 590.954 305.522 591.977C303.646 593 301.548 593.512 299.229 593.512ZM329.905 593.512C327.552 593.512 325.42 592.949 323.51 591.823C321.634 590.664 320.134 589.112 319.008 587.168C317.917 585.224 317.371 583.024 317.371 580.568C317.371 578.112 317.917 575.913 319.008 573.968C320.134 571.99 321.634 570.438 323.51 569.313C325.42 568.187 327.552 567.625 329.905 567.625C332.224 567.625 334.322 568.136 336.198 569.159C338.074 570.183 339.557 571.564 340.649 573.303L337.63 575.196C336.846 573.9 335.772 572.877 334.407 572.127C333.077 571.342 331.576 570.95 329.905 570.95C328.2 570.95 326.682 571.376 325.352 572.229C324.022 573.048 322.965 574.173 322.18 575.606C321.43 577.038 321.055 578.692 321.055 580.568C321.055 582.41 321.43 584.064 322.18 585.531C322.965 586.963 324.022 588.106 325.352 588.958C326.682 589.777 328.2 590.186 329.905 590.186C331.576 590.186 333.077 589.811 334.407 589.061C335.772 588.276 336.846 587.236 337.63 585.94L340.649 587.833C339.557 589.572 338.074 590.954 336.198 591.977C334.322 593 332.224 593.512 329.905 593.512ZM360.786 593.512C358.398 593.512 356.25 592.949 354.34 591.823C352.43 590.664 350.912 589.112 349.786 587.168C348.695 585.19 348.149 582.973 348.149 580.517C348.149 578.061 348.678 575.861 349.735 573.917C350.793 571.973 352.225 570.438 354.033 569.313C355.875 568.187 357.921 567.625 360.172 567.625C362.525 567.625 364.623 568.187 366.465 569.313C368.306 570.404 369.756 571.905 370.813 573.815C371.871 575.691 372.399 577.823 372.399 580.21V581.336H351.782C351.918 583.041 352.396 584.576 353.214 585.94C354.033 587.27 355.107 588.327 356.437 589.112C357.802 589.862 359.302 590.237 360.939 590.237C362.406 590.237 363.77 589.965 365.032 589.419C366.328 588.839 367.403 588.055 368.255 587.065L370.864 589.368C369.534 590.732 368.017 591.772 366.311 592.488C364.606 593.171 362.764 593.512 360.786 593.512ZM351.884 578.573H368.716C368.511 577.072 367.999 575.742 367.181 574.582C366.396 573.423 365.39 572.519 364.162 571.871C362.969 571.189 361.622 570.848 360.121 570.848C358.722 570.848 357.443 571.172 356.284 571.82C355.124 572.468 354.152 573.372 353.368 574.531C352.617 575.691 352.123 577.038 351.884 578.573ZM390.592 593.512C388.375 593.512 386.312 593.222 384.402 592.642C382.492 592.028 380.889 591.09 379.593 589.828L381.588 587.219C383.191 588.379 384.709 589.197 386.141 589.675C387.574 590.118 389.023 590.34 390.49 590.34C392.57 590.34 394.276 589.93 395.606 589.112C396.97 588.293 397.652 587.253 397.652 585.991C397.652 585.002 397.328 584.252 396.68 583.74C396.066 583.194 395.248 582.802 394.225 582.563C393.201 582.325 392.059 582.137 390.797 582.001C389.569 581.864 388.324 581.694 387.062 581.489C385.834 581.25 384.709 580.909 383.686 580.466C382.662 580.022 381.827 579.374 381.179 578.522C380.565 577.635 380.258 576.458 380.258 574.992C380.258 573.525 380.667 572.246 381.486 571.155C382.338 570.063 383.515 569.211 385.016 568.597C386.516 567.949 388.222 567.625 390.132 567.625C392.008 567.625 393.781 567.863 395.452 568.341C397.158 568.784 398.846 569.586 400.517 570.745L398.675 573.457C397.277 572.468 395.845 571.786 394.378 571.41C392.946 571.001 391.479 570.797 389.978 570.797C388.102 570.797 386.585 571.155 385.425 571.871C384.265 572.587 383.686 573.542 383.686 574.736C383.686 575.691 383.993 576.424 384.606 576.936C385.255 577.447 386.09 577.823 387.113 578.061C388.171 578.3 389.313 578.505 390.541 578.675C391.803 578.812 393.048 578.999 394.276 579.238C395.538 579.443 396.68 579.784 397.703 580.261C398.761 580.705 399.596 581.37 400.21 582.256C400.858 583.109 401.182 584.286 401.182 585.786C401.182 587.219 400.722 588.532 399.801 589.726C398.88 590.885 397.618 591.806 396.015 592.488C394.412 593.171 392.604 593.512 390.592 593.512ZM421.268 593.512C419.051 593.512 416.988 593.222 415.078 592.642C413.168 592.028 411.565 591.09 410.269 589.828L412.264 587.219C413.867 588.379 415.385 589.197 416.817 589.675C418.25 590.118 419.699 590.34 421.166 590.34C423.246 590.34 424.952 589.93 426.282 589.112C427.646 588.293 428.328 587.253 428.328 585.991C428.328 585.002 428.004 584.252 427.356 583.74C426.742 583.194 425.924 582.802 424.901 582.563C423.877 582.325 422.735 582.137 421.473 582.001C420.245 581.864 419 581.694 417.738 581.489C416.51 581.25 415.385 580.909 414.362 580.466C413.338 580.022 412.503 579.374 411.855 578.522C411.241 577.635 410.934 576.458 410.934 574.992C410.934 573.525 411.343 572.246 412.162 571.155C413.014 570.063 414.191 569.211 415.692 568.597C417.192 567.949 418.898 567.625 420.808 567.625C422.684 567.625 424.457 567.863 426.128 568.341C427.834 568.784 429.522 569.586 431.193 570.745L429.351 573.457C427.953 572.468 426.521 571.786 425.054 571.41C423.622 571.001 422.155 570.797 420.654 570.797C418.778 570.797 417.261 571.155 416.101 571.871C414.941 572.587 414.362 573.542 414.362 574.736C414.362 575.691 414.669 576.424 415.282 576.936C415.931 577.447 416.766 577.823 417.789 578.061C418.847 578.3 419.989 578.505 421.217 578.675C422.479 578.812 423.724 578.999 424.952 579.238C426.214 579.443 427.356 579.784 428.379 580.261C429.437 580.705 430.272 581.37 430.886 582.256C431.534 583.109 431.858 584.286 431.858 585.786C431.858 587.219 431.398 588.532 430.477 589.726C429.556 590.885 428.294 591.806 426.691 592.488C425.088 593.171 423.28 593.512 421.268 593.512ZM472.132 603.692V568.034H475.816V571.615C476.771 570.353 477.931 569.398 479.295 568.75C480.693 568.068 482.228 567.727 483.899 567.727C486.082 567.727 488.026 568.307 489.731 569.466C491.471 570.592 492.852 572.127 493.875 574.071C494.899 575.981 495.41 578.129 495.41 580.517C495.41 582.904 494.882 585.07 493.824 587.014C492.801 588.958 491.403 590.51 489.629 591.67C487.89 592.795 485.912 593.358 483.695 593.358C482.126 593.358 480.676 593.068 479.346 592.488C478.016 591.874 476.856 591.005 475.867 589.879V603.692H472.132ZM482.978 590.135C484.65 590.135 486.133 589.726 487.429 588.907C488.759 588.055 489.8 586.912 490.55 585.479C491.334 584.013 491.727 582.376 491.727 580.568C491.727 578.726 491.334 577.089 490.55 575.657C489.8 574.224 488.759 573.099 487.429 572.28C486.133 571.428 484.65 571.001 482.978 571.001C481.512 571.001 480.148 571.308 478.886 571.922C477.658 572.502 476.652 573.338 475.867 574.429V586.656C476.686 587.748 477.709 588.6 478.937 589.214C480.199 589.828 481.546 590.135 482.978 590.135ZM502.962 593V589.93H509.817V571.104H502.962V568.034H513.552V573.61C514.302 571.7 515.428 570.234 516.929 569.211C518.429 568.153 520.169 567.625 522.147 567.625C522.931 567.625 523.631 567.693 524.244 567.829C524.858 567.932 525.592 568.119 526.444 568.392V571.82C525.592 571.547 524.773 571.325 523.989 571.155C523.238 570.984 522.488 570.899 521.738 570.899C519.896 570.899 518.259 571.376 516.826 572.331C515.394 573.286 514.302 574.651 513.552 576.424V589.93H520.817V593H502.962ZM544.842 593.512C542.455 593.512 540.306 592.949 538.396 591.823C536.486 590.664 534.968 589.112 533.843 587.168C532.751 585.19 532.205 582.973 532.205 580.517C532.205 578.061 532.734 575.861 533.791 573.917C534.849 571.973 536.281 570.438 538.089 569.313C539.931 568.187 541.977 567.625 544.228 567.625C546.581 567.625 548.679 568.187 550.521 569.313C552.363 570.404 553.812 571.905 554.869 573.815C555.927 575.691 556.455 577.823 556.455 580.21V581.336H535.838C535.974 583.041 536.452 584.576 537.27 585.94C538.089 587.27 539.163 588.327 540.493 589.112C541.858 589.862 543.358 590.237 544.995 590.237C546.462 590.237 547.826 589.965 549.088 589.419C550.384 588.839 551.459 588.055 552.311 587.065L554.921 589.368C553.59 590.732 552.073 591.772 550.367 592.488C548.662 593.171 546.82 593.512 544.842 593.512ZM535.94 578.573H552.772C552.567 577.072 552.056 575.742 551.237 574.582C550.453 573.423 549.446 572.519 548.219 571.871C547.025 571.189 545.678 570.848 544.177 570.848C542.779 570.848 541.5 571.172 540.34 571.82C539.18 572.468 538.208 573.372 537.424 574.531C536.673 575.691 536.179 577.038 535.94 578.573ZM573.113 593L562.37 568.034H566.411L575.006 588.754L583.448 568.034H587.438L576.695 593H573.113ZM605.222 562.099C604.335 562.099 603.568 561.792 602.92 561.178C602.306 560.53 601.999 559.78 601.999 558.927C601.999 558.041 602.306 557.29 602.92 556.676C603.568 556.062 604.335 555.756 605.222 555.756C606.109 555.756 606.859 556.062 607.473 556.676C608.121 557.29 608.445 558.041 608.445 558.927C608.445 559.78 608.121 560.53 607.473 561.178C606.859 561.792 606.109 562.099 605.222 562.099ZM611.463 593.512C608.837 593.512 606.825 592.898 605.427 591.67C604.028 590.442 603.329 588.6 603.329 586.145V571.104H594.069V568.034H607.064V585.786C607.064 587.355 607.439 588.481 608.189 589.163C608.94 589.845 610.048 590.186 611.515 590.186C612.401 590.186 613.305 590.101 614.226 589.93C615.147 589.726 616.17 589.402 617.296 588.958V592.335C616.307 592.676 615.318 592.949 614.328 593.153C613.373 593.392 612.418 593.512 611.463 593.512ZM636.87 593.512C634.483 593.512 632.334 592.949 630.424 591.823C628.514 590.664 626.996 589.112 625.871 587.168C624.779 585.19 624.233 582.973 624.233 580.517C624.233 578.061 624.762 575.861 625.819 573.917C626.877 571.973 628.309 570.438 630.117 569.313C631.959 568.187 634.005 567.625 636.256 567.625C638.609 567.625 640.707 568.187 642.549 569.313C644.391 570.404 645.84 571.905 646.897 573.815C647.955 575.691 648.483 577.823 648.483 580.21V581.336H627.866C628.002 583.041 628.48 584.576 629.298 585.94C630.117 587.27 631.191 588.327 632.521 589.112C633.886 589.862 635.386 590.237 637.023 590.237C638.49 590.237 639.854 589.965 641.116 589.419C642.412 588.839 643.487 588.055 644.339 587.065L646.949 589.368C645.618 590.732 644.101 591.772 642.395 592.488C640.69 593.171 638.848 593.512 636.87 593.512ZM627.968 578.573H644.8C644.595 577.072 644.084 575.742 643.265 574.582C642.481 573.423 641.474 572.519 640.247 571.871C639.053 571.189 637.706 570.848 636.205 570.848C634.807 570.848 633.528 571.172 632.368 571.82C631.208 572.468 630.236 573.372 629.452 574.531C628.701 575.691 628.207 577.038 627.968 578.573ZM658.491 593L653.528 568.034H656.854L660.384 587.833L665.397 568.034H668.723L673.788 587.833L677.266 568.034H680.336L675.374 593H671.997L666.983 572.894L661.97 593H658.491ZM689.883 556.472C692.782 557.836 695.34 559.695 697.557 562.048C699.774 564.367 701.496 567.096 702.724 570.234C703.986 573.372 704.617 576.765 704.617 580.415C704.617 584.098 703.986 587.509 702.724 590.647C701.496 593.75 699.774 596.479 697.557 598.832C695.34 601.186 692.782 603.027 689.883 604.358L688.297 601.441C692.424 599.497 695.579 596.701 697.762 593.051C699.944 589.436 701.036 585.224 701.036 580.415C701.036 575.606 699.944 571.393 697.762 567.778C695.579 564.129 692.424 561.332 688.297 559.388L689.883 556.472Z" fill="url(#paint2_linear_1255_188)"/>
<defs>
<linearGradient id="paint0_linear_1255_188" x1="374.998" y1="0.00106933" x2="374.998" y2="340.001" gradientUnits="userSpaceOnUse">
<stop stop-color="#B32BD5"/>
<stop offset="1" stop-color="#DA3C8E"/>
</linearGradient>
<linearGradient id="paint1_linear_1255_188" x1="534.56" y1="17.7078" x2="534.56" y2="139.171" gradientUnits="userSpaceOnUse">
<stop stop-color="#161616"/>
<stop offset="1"/>
</linearGradient>
<linearGradient id="paint2_linear_1255_188" x1="375.5" y1="396" x2="375.5" y2="620" gradientUnits="userSpaceOnUse">
<stop stop-color="#B42BD5"/>
<stop offset="1" stop-color="#D83C92"/>
</linearGradient>
</defs>
</svg>
