<?xml version="1.0" encoding="utf-8"?>
<svg viewBox="0 0 500 500" width="500px" height="357.143px" xmlns="http://www.w3.org/2000/svg" xmlns:xlink="http://www.w3.org/1999/xlink" xmlns:bx="https://boxy-svg.com">
  <defs>
    <linearGradient id="gradient-29-1" gradientUnits="userSpaceOnUse" x1="148.765" y1="-443.581" x2="148.765" y2="-300" gradientTransform="matrix(2.487399, 0, 0, 2.594628, -120.038963, 1217.929443)" xlink:href="#gradient-29"/>
    <linearGradient id="gradient-29" bx:pinned="true">
      <title>gradient1</title>
      <stop offset="0" style="stop-color: rgb(179, 43, 213);"/>
      <stop offset="1" style="stop-color: rgb(218, 60, 142);"/>
    </linearGradient>
    <linearGradient gradientUnits="userSpaceOnUse" x1="793.906" y1="575.817" x2="793.906" y2="700" id="gradient-1">
      <stop offset="0" style="stop-color: rgba(22, 22, 22, 1)"/>
      <stop offset="1" style="stop-color: rgba(0, 0, 0, 1)"/>
    </linearGradient>
  </defs>
  <path d="M 440.895 67 L 59.105 67 C 43.445 67.047 28.44 73.561 17.36 85.114 C 6.291 96.665 0.044 112.319 0 128.653 L 0 377.884 C 0.044 394.218 6.291 409.876 17.36 421.427 C 28.44 432.98 43.445 439.489 59.105 439.541 L 440.895 439.541 C 456.555 439.489 471.559 432.98 482.635 421.427 C 493.709 409.876 499.954 394.218 500 377.884 L 500 128.653 C 499.954 112.319 493.709 96.665 482.635 85.114 C 471.559 73.561 456.555 67.047 440.895 67 Z M 229.645 268.169 L 135.9 342.679 C 132.715 345.045 128.915 346.339 125.005 346.402 C 119.415 346.449 114.126 343.758 110.719 339.141 C 107.8 335.199 106.52 330.197 107.155 325.269 C 107.795 320.334 110.299 315.87 114.11 312.876 L 189.29 253.268 L 114.11 193.66 C 109.005 189.602 106.365 183.009 107.19 176.37 C 108.005 169.73 112.155 164.051 118.08 161.469 C 124 158.893 130.79 159.8 135.9 163.863 L 229.645 238.367 C 234.145 241.888 236.79 247.406 236.79 253.268 C 236.79 259.135 234.145 264.653 229.645 268.169 Z M 375.005 346.402 L 265.72 346.402 C 259.34 346.402 253.445 342.855 250.255 337.091 C 247.065 331.329 247.065 324.226 250.255 318.461 C 253.445 312.699 259.34 309.148 265.72 309.148 L 375.005 309.148 C 381.385 309.148 387.279 312.699 390.47 318.461 C 393.66 324.226 393.66 331.329 390.47 337.091 C 387.279 342.855 381.385 346.402 375.005 346.402 Z" style="fill: url(#gradient-29-1);">
    <title>terminal</title>
  </path>
  <g transform="matrix(1.337486, 0, 0, 1.337486, -668.791077, -680.147217)" style="">
    <title>r3bl</title>
    <rect width="124.183" height="124.183" rx="20" style="fill: url(#gradient-1);" x="731.814" y="575.817"/>
    <rect x="742.377" y="586.381" width="51.528" height="51.528" style="visibility: hidden;" fill="#161616"/>
    <path fill-rule="evenodd" clip-rule="evenodd" d="M 769.624 600.551 L 779.735 600.551 L 779.735 606.4 L 779.735 610.619 C 783.428 609.694 786.176 606.201 786.176 602.319 C 786.176 597.785 782.427 594.11 777.803 594.11 C 773.798 594.11 770.449 596.867 769.624 600.551 Z" style="" fill="white"/>
    <path fill-rule="evenodd" clip-rule="evenodd" d="M 769.76 611.849 C 770.771 615.347 773.989 618.071 777.803 618.071 C 782.427 618.071 786.176 614.067 786.176 609.533 C 786.176 605.651 783.428 602.399 779.735 601.543 L 779.735 611.849 L 769.76 611.849 Z" style="" fill="white"/>
    <rect x="750.107" y="594.11" width="6.441" height="36.07" style="" fill="white"/>
    <rect x="779.735" y="601.839" width="6.441" height="7.987" style="" fill="white"/>
    <path fill-rule="evenodd" clip-rule="evenodd" d="M 750.107 600.551 L 750.107 594.11 L 778.576 594.11 L 778.576 600.551 L 750.107 600.551 Z" style="" fill="white"/>
    <path fill-rule="evenodd" clip-rule="evenodd" d="M 750.107 618.071 L 750.107 611.629 L 778.576 611.629 L 778.576 618.071 L 750.107 618.071 Z" style="" fill="white"/>
    <path fill-rule="evenodd" clip-rule="evenodd" d="M 776.234 614.258 L 770.771 617.671 L 778.588 630.18 L 786.183 630.18 L 776.234 614.258 Z" style="" fill="white"/>
    <path fill-rule="evenodd" clip-rule="evenodd" d="M 779.993 600.293 L 775.871 600.293 L 775.871 600.551 C 778.005 600.551 779.735 602.281 779.735 604.416 L 779.993 604.416 L 779.993 600.293 Z" style="" fill="white"/>
    <path fill-rule="evenodd" clip-rule="evenodd" d="M 779.993 611.887 L 775.871 611.887 L 775.871 611.629 C 778.005 611.629 779.735 609.899 779.735 607.765 L 779.993 607.765 L 779.993 611.887 Z" style="" fill="white"/>
    <rect x="793.648" y="586.381" width="51.528" height="51.528" style="visibility: hidden;" fill="#161616"/>
    <path fill-rule="evenodd" clip-rule="evenodd" d="M 837.447 602.483 C 837.447 607.108 833.647 610.857 828.96 610.857 C 827.297 610.857 825.745 610.384 824.435 609.568 L 831.006 609.568 L 831.006 600.551 L 820.7 600.551 C 821.585 596.858 824.947 594.11 828.96 594.11 C 833.647 594.11 837.447 597.859 837.447 602.483 Z" style="" fill="white"/>
    <path fill-rule="evenodd" clip-rule="evenodd" d="M 837.447 606.863 C 837.447 611.488 833.698 615.236 829.074 615.236 C 825.69 615.236 822.775 613.23 821.455 610.341 L 831.245 610.341 L 831.245 599.52 L 825.046 599.52 C 826.241 598.863 827.614 598.49 829.074 598.49 C 833.698 598.49 837.447 602.239 837.447 606.863 Z" style="" fill="white"/>
    <path fill-rule="evenodd" clip-rule="evenodd" d="M 837.447 617.426 C 837.447 622.051 833.647 625.8 828.96 625.8 C 827.297 625.8 825.745 625.328 824.435 624.512 L 831.072 624.512 L 831.072 615.236 L 820.767 615.236 C 821.742 611.674 825.041 609.053 828.96 609.053 C 833.647 609.053 837.447 612.802 837.447 617.426 Z" style="" fill="white"/>
    <path fill-rule="evenodd" clip-rule="evenodd" d="M 837.447 621.806 C 837.447 626.431 833.698 630.18 829.074 630.18 C 825.69 630.18 822.775 628.173 821.455 625.285 L 832.018 625.285 L 832.018 614.464 L 825.046 614.464 C 826.241 613.807 827.614 613.433 829.074 613.433 C 833.698 613.433 837.447 617.182 837.447 621.806 Z" style="" fill="white"/>
    <rect x="831.006" y="602.612" width="6.441" height="3.865" style="" fill="white"/>
    <path fill-rule="evenodd" clip-rule="evenodd" d="M 831.006 617.555 L 837.447 617.555 L 837.447 621.935 L 831.006 621.935 L 831.006 618.972 L 831.006 617.555 Z" style="" fill="white"/>
    <rect x="809.107" y="594.11" width="19.838" height="6.441" style="" fill="white"/>
    <rect x="809.107" y="623.739" width="20.611" height="6.441" style="" fill="white"/>
    <rect x="812.971" y="608.795" width="16.747" height="6.441" style="" fill="white"/>
    <path fill-rule="evenodd" clip-rule="evenodd" d="M 811.683 600.554 C 811.64 600.552 811.597 600.551 811.554 600.551 C 810.334 600.551 809.322 601.444 809.137 602.612 L 801.378 602.612 C 801.378 602.569 801.377 602.526 801.377 602.483 C 801.377 597.859 805.126 594.11 809.751 594.11 C 813.71 594.11 817.028 596.858 817.9 600.551 L 811.683 600.551 L 811.683 600.554 Z" style="" fill="white"/>
    <path fill-rule="evenodd" clip-rule="evenodd" d="M 811.683 623.735 C 811.64 623.738 811.597 623.739 811.554 623.739 C 810.334 623.739 809.322 622.846 809.137 621.678 L 801.378 621.678 C 801.378 621.72 801.377 621.763 801.377 621.806 C 801.377 626.431 805.126 630.18 809.751 630.18 C 813.71 630.18 817.028 627.431 817.9 623.739 L 811.683 623.739 L 811.683 623.735 Z" style="" fill="white"/>
    <path fill-rule="evenodd" clip-rule="evenodd" d="M 831.006 600.164 L 827.141 600.164 L 827.141 600.551 C 829.276 600.551 831.006 602.281 831.006 604.416 L 831.006 600.164 Z" style="" fill="white"/>
    <path fill-rule="evenodd" clip-rule="evenodd" d="M 831.006 609.697 L 827.141 609.697 L 827.141 608.795 C 829.276 608.795 831.006 607.065 831.006 604.931 L 831.006 609.697 Z" style="" fill="white"/>
    <path fill-rule="evenodd" clip-rule="evenodd" d="M 827.141 615.236 L 831.264 615.236 L 831.264 619.101 L 831.006 619.101 C 831.006 616.967 829.276 615.236 827.141 615.236 Z" style="" fill="white"/>
    <path fill-rule="evenodd" clip-rule="evenodd" d="M 831.264 624.64 L 827.141 624.64 L 827.141 623.739 C 829.276 623.739 831.006 622.008 831.006 619.874 L 831.264 619.874 L 831.264 624.64 Z" style="" fill="white"/>
    <rect x="742.377" y="637.651" width="51.528" height="51.528" style="visibility: hidden;" fill="#161616"/>
    <rect x="749.591" y="645.381" width="6.441" height="36.07" style="" fill="white"/>
    <rect x="44.83" y="69.563" width="6.441" height="27.052" transform="matrix(0, 1, -1, 0, 846.207336, 600.550903)" style="" fill="white"/>
    <rect x="44.314" y="84.378" width="6.441" height="26.408" transform="matrix(0, 1, -1, 0, 860.506409, 615.880615)" style="" fill="white"/>
    <rect x="45.603" y="99.192" width="6.441" height="27.825" transform="matrix(0, 1, -1, 0, 876.608948, 629.406738)" style="" fill="white"/>
    <path fill-rule="evenodd" clip-rule="evenodd" d="M 785.661 669.212 C 785.661 673.837 781.912 677.586 777.288 677.586 C 774.913 677.586 772.769 676.597 771.246 675.009 L 779.924 675.009 L 779.924 670.243 L 779.924 666.507 L 769.361 666.507 C 770.486 663.21 773.61 660.839 777.288 660.839 C 781.912 660.839 785.661 664.588 785.661 669.212 Z" style="" fill="white"/>
    <path fill-rule="evenodd" clip-rule="evenodd" d="M 785.661 673.077 C 785.661 677.701 781.907 681.45 777.275 681.45 C 773.31 681.45 769.988 678.702 769.114 675.009 L 779.214 675.009 L 779.214 665.992 L 772.805 665.992 C 774.099 665.176 775.632 664.704 777.275 664.704 C 781.907 664.704 785.661 668.453 785.661 673.077 Z" style="" fill="white"/>
    <path fill-rule="evenodd" clip-rule="evenodd" d="M 785.661 653.754 C 785.661 658.378 781.907 662.127 777.275 662.127 C 775.238 662.127 773.37 661.401 771.917 660.195 L 779.935 660.195 L 779.935 651.822 L 769.114 651.822 C 769.988 648.129 773.31 645.381 777.275 645.381 C 781.907 645.381 785.661 649.129 785.661 653.754 Z" style="" fill="white"/>
    <path fill-rule="evenodd" clip-rule="evenodd" d="M 785.68 658.134 C 785.68 662.758 781.931 666.507 777.306 666.507 C 773.923 666.507 771.008 664.5 769.687 661.612 L 779.22 661.612 L 779.22 651.822 L 771.804 651.822 C 773.276 650.538 775.2 649.76 777.306 649.76 C 781.931 649.76 785.68 653.509 785.68 658.134 Z" style="" fill="white"/>
    <path fill-rule="evenodd" clip-rule="evenodd" d="M 779.891 651.564 L 775.253 651.564 L 775.253 651.823 C 775.287 651.822 775.321 651.822 775.355 651.822 C 777.49 651.822 779.22 653.552 779.22 655.686 L 779.891 655.686 L 779.891 651.564 Z" style="" fill="white"/>
    <path fill-rule="evenodd" clip-rule="evenodd" d="M 779.22 656.33 C 779.22 658.465 777.49 660.195 775.355 660.195 L 775.355 660.581 L 779.478 660.581 L 779.478 656.202 L 779.218 656.202 C 779.219 656.244 779.22 656.287 779.22 656.33 Z" style="" fill="white"/>
    <path fill-rule="evenodd" clip-rule="evenodd" d="M 779.891 666.507 L 775.253 666.507 L 775.253 666.637 C 775.287 666.637 775.321 666.636 775.355 666.636 C 777.447 666.636 779.15 668.297 779.218 670.372 L 779.891 670.372 L 779.891 666.507 Z" style="" fill="white"/>
    <path fill-rule="evenodd" clip-rule="evenodd" d="M 779.22 671.145 C 779.22 673.279 777.49 675.009 775.355 675.009 L 775.355 675.525 L 779.478 675.525 L 779.478 671.145 L 779.22 671.145 Z" style="" fill="white"/>
    <rect x="779.22" y="653.883" width="6.441" height="4.638" style="" fill="white"/>
    <rect x="779.735" y="669.084" width="5.926" height="4.38" style="" fill="white"/>
    <rect x="793.648" y="637.651" width="51.528" height="51.528" style="visibility: hidden;" fill="#161616"/>
    <rect x="801.377" y="645.381" width="6.441" height="36.07" style="" fill="white"/>
    <rect x="105.652" y="99.217" width="6.441" height="36.07" transform="matrix(0, 1, -1, 0, 936.683533, 569.381653)" style="" fill="white"/>
  </g>
</svg>