<!--
  -   Copyright (c) 2025 R3BL LLC
  -   All rights reserved.
  -
  -   Licensed under the Apache License, Version 2.0 (the "License");
  -   you may not use this file except in compliance with the License.
  -   You may obtain a copy of the License at
  -
  -   http://www.apache.org/licenses/LICENSE-2.0
  -
  -   Unless required by applicable law or agreed to in writing, software
  -   distributed under the License is distributed on an "AS IS" BASIS,
  -   WITHOUT WARRANTIES OR CONDITIONS OF ANY KIND, either express or implied.
  -   See the License for the specific language governing permissions and
  -   limitations under the License.
  -->

<svg width="751" height="516" viewBox="0 0 751 516" fill="none" xmlns="http://www.w3.org/2000/svg">
<path d="M557.729 0H194.27C179.362 0.0442694 165.073 5.98881 154.528 16.5302C143.989 27.0752 138.044 41.3619 138 56.2701V283.73C138.044 298.638 143.989 312.926 154.528 323.471C165.073 334.011 179.362 339.956 194.27 340H557.729C572.637 339.956 586.924 334.011 597.469 323.471C608.01 312.926 613.955 298.638 613.999 283.73V56.2701C613.955 41.3619 608.01 27.0752 597.469 16.5302C586.924 5.98881 572.637 0.0442694 557.729 0ZM356.624 183.598L267.377 251.597C264.343 253.758 260.727 254.942 257.003 254.999C251.684 255.042 246.648 252.586 243.404 248.371C240.627 244.773 239.405 240.21 240.011 235.712C240.62 231.207 243.007 227.132 246.632 224.398L318.203 169.998L246.632 115.598C241.775 111.895 239.26 105.878 240.043 99.8187C240.82 93.7591 244.773 88.5743 250.414 86.2192C256.047 83.8658 262.514 84.6963 267.377 88.4008L356.624 156.399C360.905 159.611 363.424 164.65 363.424 169.998C363.424 175.351 360.905 180.389 356.624 183.598ZM495.005 254.999H390.964C384.892 254.999 379.281 251.759 376.244 246.499C373.207 241.24 373.207 234.759 376.244 229.5C379.281 224.241 384.892 220.998 390.964 220.998H495.005C501.078 220.998 506.69 224.241 509.727 229.5C512.762 234.759 512.762 241.24 509.727 246.499C506.69 251.759 501.078 254.999 495.005 254.999Z" fill="url(#paint0_linear_1255_188)"/>
<path d="M576.729 17.7078H494.39C483.586 17.7078 474.828 26.466 474.828 37.2697V119.609C474.828 130.413 483.586 139.171 494.39 139.171H576.729C587.533 139.171 596.291 130.413 596.291 119.609V37.2697C596.291 26.466 587.533 17.7078 576.729 17.7078Z" fill="url(#paint1_linear_1255_188)"/>
<path d="M535.559 28.0405H485.16V78.44H535.559V28.0405Z" fill="#161616"/>
<path fill-rule="evenodd" clip-rule="evenodd" d="M511.81 41.9001H521.7V47.621V51.7475C525.312 50.8428 528 47.4263 528 43.6293C528 39.1946 524.333 35.6001 519.81 35.6001C515.893 35.6001 512.617 38.2968 511.81 41.9001Z" fill="white"/>
<path fill-rule="evenodd" clip-rule="evenodd" d="M511.943 52.9506C512.932 56.372 516.079 59.0363 519.81 59.0363C524.333 59.0363 527.999 55.12 527.999 50.6854C527.999 46.8884 525.312 43.7076 521.699 42.8704V52.9506H511.943Z" fill="white"/>
<path d="M499.02 35.6001H492.72V70.8801H499.02V35.6001Z" fill="white"/>
<path d="M528 43.1597H521.7V50.9717H528V43.1597Z" fill="white"/>
<path fill-rule="evenodd" clip-rule="evenodd" d="M492.72 41.9001V35.6001H520.566V41.9001H492.72Z" fill="white"/>
<path fill-rule="evenodd" clip-rule="evenodd" d="M492.72 59.0362V52.7354H520.566V59.0362H492.72Z" fill="white"/>
<path fill-rule="evenodd" clip-rule="evenodd" d="M518.275 55.3066L512.932 58.6449L520.578 70.8799H528.006L518.275 55.3066Z" fill="white"/>
<path fill-rule="evenodd" clip-rule="evenodd" d="M521.952 41.6477H517.92V41.9001C520.007 41.9001 521.7 43.5921 521.7 45.6804H521.952V41.6477Z" fill="white"/>
<path fill-rule="evenodd" clip-rule="evenodd" d="M521.952 52.9878H517.92V52.7354C520.007 52.7354 521.7 51.0433 521.7 48.9561H521.952V52.9878Z" fill="white"/>
<path d="M585.707 28.0405H535.308V78.44H585.707V28.0405Z" fill="#161616"/>
<path fill-rule="evenodd" clip-rule="evenodd" d="M578.148 43.7897C578.148 48.3134 574.431 51.9803 569.846 51.9803C568.22 51.9803 566.702 51.5177 565.421 50.7195H571.848V41.9001H561.767C562.633 38.2879 565.921 35.6001 569.846 35.6001C574.431 35.6001 578.148 39.267 578.148 43.7897Z" fill="white"/>
<path fill-rule="evenodd" clip-rule="evenodd" d="M578.147 48.0739C578.147 52.5976 574.481 56.2635 569.958 56.2635C566.648 56.2635 563.797 54.3015 562.506 51.4757H572.081V40.8917H566.018C567.187 40.2491 568.53 39.8843 569.958 39.8843C574.481 39.8843 578.147 43.5512 578.147 48.0739Z" fill="white"/>
<path fill-rule="evenodd" clip-rule="evenodd" d="M578.148 58.4055C578.148 62.9292 574.431 66.596 569.846 66.596C568.22 66.596 566.702 66.1344 565.421 65.3363H571.912V56.2634H561.833C562.787 52.7795 566.013 50.2158 569.846 50.2158C574.431 50.2158 578.148 53.8828 578.148 58.4055Z" fill="white"/>
<path fill-rule="evenodd" clip-rule="evenodd" d="M578.147 62.6894C578.147 67.2131 574.481 70.88 569.958 70.88C566.648 70.88 563.797 68.9169 562.506 66.0922H572.837V55.5082H566.018C567.187 54.8656 568.53 54.4998 569.958 54.4998C574.481 54.4998 578.147 58.1667 578.147 62.6894Z" fill="white"/>
<path d="M578.148 43.9158H571.848V47.6961H578.148V43.9158Z" fill="white"/>
<path fill-rule="evenodd" clip-rule="evenodd" d="M571.848 58.5317H578.148V62.8158H571.848V59.9177V58.5317Z" fill="white"/>
<path d="M569.832 35.6001H550.428V41.9001H569.832V35.6001Z" fill="white"/>
<path d="M570.588 64.5803H550.428V70.8802H570.588V64.5803Z" fill="white"/>
<path d="M570.588 49.9636H554.208V56.2636H570.588V49.9636Z" fill="white"/>
<path fill-rule="evenodd" clip-rule="evenodd" d="M552.948 41.903C552.906 41.901 552.864 41.9001 552.822 41.9001C551.628 41.9001 550.639 42.7735 550.458 43.9159H542.869C542.869 43.8738 542.868 43.8318 542.868 43.7897C542.868 39.267 546.534 35.6001 551.058 35.6001C554.93 35.6001 558.176 38.2879 559.029 41.9001H552.948V41.903Z" fill="white"/>
<path fill-rule="evenodd" clip-rule="evenodd" d="M552.948 64.5762C552.906 64.5791 552.864 64.5801 552.822 64.5801C551.628 64.5801 550.639 63.7066 550.458 62.5642H542.869C542.869 62.6053 542.868 62.6474 542.868 62.6895C542.868 67.2132 546.534 70.88 551.058 70.88C554.93 70.88 558.176 68.1912 559.029 64.5801H552.948V64.5762Z" fill="white"/>
<path fill-rule="evenodd" clip-rule="evenodd" d="M571.848 41.5215H568.067V41.9C570.155 41.9 571.848 43.5921 571.848 45.6804V41.5215Z" fill="white"/>
<path fill-rule="evenodd" clip-rule="evenodd" d="M571.848 50.8457H568.067V49.9634C570.155 49.9634 571.848 48.2713 571.848 46.1841V50.8457Z" fill="white"/>
<path fill-rule="evenodd" clip-rule="evenodd" d="M568.067 56.2634H572.1V60.0438H571.848C571.848 57.9565 570.155 56.2634 568.067 56.2634Z" fill="white"/>
<path fill-rule="evenodd" clip-rule="evenodd" d="M572.1 65.4614H568.067V64.5801C570.155 64.5801 571.848 62.8871 571.848 60.7998H572.1V65.4614Z" fill="white"/>
<path d="M535.559 78.1875H485.16V128.587H535.559V78.1875Z" fill="#161616"/>
<path d="M498.516 85.748H492.216V121.028H498.516V85.748Z" fill="white"/>
<path d="M518.677 92.048V85.748H492.217V92.048H518.677Z" fill="white"/>
<path d="M518.172 106.537V100.237H492.342V106.537H518.172Z" fill="white"/>
<path d="M519.432 121.028V114.728H492.217V121.028H519.432Z" fill="white"/>
<path fill-rule="evenodd" clip-rule="evenodd" d="M527.496 109.057C527.496 113.581 523.829 117.248 519.306 117.248C516.983 117.248 514.886 116.28 513.396 114.727H521.884V110.065V106.411H511.553C512.653 103.187 515.709 100.867 519.306 100.867C523.829 100.867 527.496 104.534 527.496 109.057Z" fill="white"/>
<path fill-rule="evenodd" clip-rule="evenodd" d="M527.496 112.838C527.496 117.36 523.824 121.027 519.293 121.027C515.415 121.027 512.166 118.339 511.311 114.727H521.19V105.908H514.921C516.187 105.11 517.686 104.648 519.293 104.648C523.824 104.648 527.496 108.315 527.496 112.838Z" fill="white"/>
<path fill-rule="evenodd" clip-rule="evenodd" d="M527.496 93.9377C527.496 98.4604 523.824 102.127 519.293 102.127C517.301 102.127 515.474 101.417 514.053 100.238H521.895V92.048H511.311C512.166 88.4359 515.415 85.748 519.293 85.748C523.824 85.748 527.496 89.414 527.496 93.9377Z" fill="white"/>
<path fill-rule="evenodd" clip-rule="evenodd" d="M527.514 98.2218C527.514 102.745 523.847 106.411 519.324 106.411C516.015 106.411 513.164 104.448 511.872 101.624H521.196V92.0481H513.942C515.382 90.7922 517.264 90.0312 519.324 90.0312C523.847 90.0312 527.514 93.6981 527.514 98.2218Z" fill="white"/>
<path fill-rule="evenodd" clip-rule="evenodd" d="M521.852 91.7957H517.316V92.049C517.349 92.048 517.382 92.048 517.415 92.048C519.504 92.048 521.196 93.7401 521.196 95.8273H521.852V91.7957Z" fill="white"/>
<path fill-rule="evenodd" clip-rule="evenodd" d="M521.196 96.4575C521.196 98.5457 519.504 100.238 517.416 100.238V100.615H521.448V96.3323H521.194C521.195 96.3734 521.196 96.4154 521.196 96.4575Z" fill="white"/>
<path fill-rule="evenodd" clip-rule="evenodd" d="M521.852 106.411H517.316V106.539C517.349 106.539 517.382 106.538 517.415 106.538C519.462 106.538 521.127 108.162 521.194 110.192H521.852V106.411Z" fill="white"/>
<path fill-rule="evenodd" clip-rule="evenodd" d="M521.196 110.948C521.196 113.035 519.504 114.727 517.416 114.727V115.232H521.448V110.948H521.196Z" fill="white"/>
<path d="M527.496 94.064H521.196V98.6004H527.496V94.064Z" fill="white"/>
<path d="M527.496 108.932H521.7V113.216H527.496V108.932Z" fill="white"/>
<path d="M585.707 78.1875H535.308V128.587H585.707V78.1875Z" fill="#161616"/>
<path d="M549.167 85.748H542.868V121.028H549.167V85.748Z" fill="white"/>
<path d="M578.167 121.051V114.751H542.887V121.051H578.167Z" fill="white"/>
<path d="M8.07102 505V487.606H23.6564V450.59H8.07102V433.196H46.1996V451.286C48.7972 444.699 52.0442 439.875 55.9405 436.814C59.9296 433.66 64.429 432.083 69.4386 432.083C71.5723 432.083 73.2422 432.222 74.4482 432.5C75.747 432.778 77.2777 433.335 79.0403 434.17V454.347C77.2777 453.512 75.144 452.909 72.6392 452.538C70.2271 452.075 67.8151 451.843 65.4031 451.843C61.5067 451.843 57.8423 452.724 54.4098 454.487C50.9773 456.156 48.2406 458.476 46.1996 461.444V487.606H62.62V505H8.07102ZM123.794 506.531C116.001 506.531 108.719 505.139 101.947 502.356C95.2672 499.573 89.7473 495.723 85.3871 490.806L99.8593 477.447C103.477 481.344 106.956 484.034 110.296 485.518C113.728 487.003 118.135 487.745 123.516 487.745C127.041 487.745 130.102 487.281 132.7 486.353C135.39 485.333 137.431 483.941 138.823 482.178C140.307 480.323 141.049 478.189 141.049 475.777C141.049 473.644 140.493 471.835 139.379 470.35C138.359 468.866 136.875 467.706 134.926 466.871C133.071 466.036 130.845 465.619 128.247 465.619H115.723V447.946H126.021C130.01 447.946 133.117 447.019 135.344 445.163C137.57 443.215 138.684 440.525 138.684 437.092C138.684 434.773 137.988 432.732 136.596 430.969C135.298 429.114 133.489 427.676 131.169 426.655C128.943 425.635 126.345 425.125 123.377 425.125C118.645 425.125 114.61 425.96 111.27 427.63C108.023 429.207 104.498 432.083 100.694 436.257L86.0829 423.037C90.7214 417.749 96.3804 413.621 103.06 410.653C109.832 407.591 116.883 406.06 124.212 406.06C131.355 406.06 137.617 407.266 142.998 409.678C148.378 411.998 152.599 415.291 155.661 419.559C158.722 423.733 160.253 428.604 160.253 434.17C160.253 439.458 158.537 444.096 155.104 448.085C151.672 452.075 147.219 454.858 141.745 456.435C148.146 457.641 153.249 460.146 157.052 463.949C160.856 467.66 162.758 472.206 162.758 477.586C162.758 483.153 161.088 488.116 157.748 492.476C154.408 496.836 149.816 500.269 143.972 502.774C138.127 505.278 131.401 506.531 123.794 506.531ZM175.088 504.861V405.086L197.631 401.886V439.179C199.858 436.953 202.363 435.237 205.146 434.031C208.022 432.732 211.037 432.083 214.191 432.083C220.035 432.083 225.37 433.706 230.194 436.953C235.018 440.2 238.868 444.607 241.744 450.173C244.619 455.739 246.057 462.047 246.057 469.098C246.057 476.056 244.619 482.364 241.744 488.023C238.868 493.589 235.018 497.996 230.194 501.243C225.37 504.49 220.035 506.113 214.191 506.113C210.758 506.113 207.558 505.417 204.589 504.026C201.713 502.634 199.116 500.64 196.796 498.042V504.861H175.088ZM208.903 488.301C212.057 488.301 214.747 487.513 216.974 485.936C219.2 484.359 220.917 482.132 222.123 479.256C223.329 476.288 223.932 472.901 223.932 469.098C223.932 465.202 223.329 461.815 222.123 458.94C220.917 456.064 219.2 453.837 216.974 452.26C214.747 450.683 212.057 449.894 208.903 449.894C206.769 449.894 204.728 450.312 202.78 451.147C200.925 451.889 199.208 452.956 197.631 454.347V483.848C199.208 485.24 200.925 486.353 202.78 487.188C204.728 487.93 206.769 488.301 208.903 488.301ZM309.04 506.392C299.114 506.392 291.6 504.026 286.497 499.295C281.395 494.563 278.844 487.559 278.844 478.282V421.228H254.074V403.834H301.387V475.916C301.387 479.906 302.361 482.828 304.309 484.683C306.257 486.539 309.365 487.466 313.633 487.466C315.674 487.466 317.622 487.281 319.477 486.91C321.425 486.539 323.559 485.889 325.878 484.962V503.191C324.394 503.933 321.982 504.629 318.642 505.278C315.302 506.02 312.102 506.392 309.04 506.392ZM349.898 474.525V455.739H401.107V474.525H349.898ZM461.585 506.392C454.164 506.392 447.484 504.768 441.547 501.521C435.61 498.181 430.925 493.728 427.492 488.162C424.06 482.503 422.343 476.195 422.343 469.237C422.343 462.186 424.06 455.878 427.492 450.312C430.925 444.746 435.61 440.339 441.547 437.092C447.484 433.752 454.164 432.083 461.585 432.083C469.1 432.083 475.872 433.66 481.902 436.814C487.932 439.968 492.617 444.143 495.957 449.338L478.98 461.723C477.403 458.476 475.083 455.924 472.022 454.069C468.961 452.214 465.528 451.286 461.724 451.286C458.478 451.286 455.555 452.075 452.958 453.652C450.453 455.229 448.458 457.362 446.974 460.053C445.49 462.743 444.747 465.805 444.747 469.237C444.747 472.67 445.49 475.731 446.974 478.421C448.458 481.112 450.453 483.245 452.958 484.822C455.555 486.4 458.478 487.188 461.724 487.188C465.528 487.188 468.961 486.26 472.022 484.405C475.083 482.457 477.403 479.906 478.98 476.751L495.957 489.136C492.617 494.331 487.932 498.506 481.902 501.66C475.872 504.814 469.1 506.392 461.585 506.392ZM505.087 505V433.196H523.455V439.179C525.125 436.86 526.934 435.098 528.882 433.892C530.923 432.686 533.15 432.083 535.562 432.083C538.53 432.083 541.174 432.825 543.494 434.309C545.906 435.793 547.761 437.881 549.06 440.571C550.915 437.788 553.049 435.701 555.461 434.309C557.966 432.825 560.749 432.083 563.81 432.083C568.449 432.083 572.252 433.799 575.221 437.231C578.19 440.571 579.674 444.931 579.674 450.312V505H561.305V456.296C561.305 453.884 560.795 451.982 559.775 450.59C558.754 449.106 557.316 448.364 555.461 448.364C554.719 448.364 554.023 448.503 553.374 448.781C552.724 448.967 552.121 449.291 551.565 449.755C551.565 450.034 551.565 450.358 551.565 450.729C551.565 451.008 551.565 451.332 551.565 451.703V505H533.196V456.296C533.196 453.884 532.686 451.982 531.665 450.59C530.645 449.106 529.207 448.364 527.352 448.364C526.702 448.364 526.053 448.456 525.403 448.642C524.754 448.828 524.105 449.152 523.455 449.616V505H505.087ZM620.253 506.113C614.408 506.113 609.074 504.49 604.25 501.243C599.426 497.996 595.576 493.589 592.7 488.023C589.824 482.364 588.386 476.056 588.386 469.098C588.386 462.047 589.824 455.739 592.7 450.173C595.576 444.607 599.426 440.2 604.25 436.953C609.074 433.706 614.408 432.083 620.253 432.083C623.5 432.083 626.515 432.732 629.298 434.031C632.081 435.237 634.586 436.953 636.813 439.179V405.643L659.356 402.442V505H637.647V498.042C635.328 500.64 632.684 502.634 629.716 504.026C626.84 505.417 623.686 506.113 620.253 506.113ZM625.541 488.301C627.675 488.301 629.716 487.93 631.664 487.188C633.612 486.353 635.328 485.24 636.813 483.848V454.347C635.328 452.956 633.612 451.889 631.664 451.147C629.716 450.312 627.675 449.894 625.541 449.894C622.479 449.894 619.789 450.683 617.47 452.26C615.243 453.837 613.527 456.064 612.321 458.94C611.115 461.815 610.512 465.202 610.512 469.098C610.512 472.901 611.115 476.288 612.321 479.256C613.527 482.132 615.243 484.359 617.47 485.936C619.789 487.513 622.479 488.301 625.541 488.301ZM675.583 505V487.606H691.168V450.59H675.583V433.196H713.711V451.286C716.309 444.699 719.556 439.875 723.452 436.814C727.441 433.66 731.941 432.083 736.95 432.083C739.084 432.083 740.754 432.222 741.96 432.5C743.259 432.778 744.789 433.335 746.552 434.17V454.347C744.789 453.512 742.656 452.909 740.151 452.538C737.739 452.075 735.327 451.843 732.915 451.843C729.018 451.843 725.354 452.724 721.921 454.487C718.489 456.156 715.752 458.476 713.711 461.444V487.606H730.132V505H675.583Z" fill="url(#paint2_linear_1255_188)"/>
<defs>
<linearGradient id="paint0_linear_1255_188" x1="375.998" y1="0.00106933" x2="375.998" y2="340.001" gradientUnits="userSpaceOnUse">
<stop stop-color="#B32BD5"/>
<stop offset="1" stop-color="#DA3C8E"/>
</linearGradient>
<linearGradient id="paint1_linear_1255_188" x1="535.56" y1="17.7078" x2="535.56" y2="139.171" gradientUnits="userSpaceOnUse">
<stop stop-color="#161616"/>
<stop offset="1"/>
</linearGradient>
<linearGradient id="paint2_linear_1255_188" x1="375.5" y1="396" x2="375.5" y2="516" gradientUnits="userSpaceOnUse">
<stop stop-color="#B42BD5"/>
<stop offset="1" stop-color="#D83C92"/>
</linearGradient>
</defs>
</svg>
