<!--
  -   Copyright (c) 2025 R3BL LLC
  -   All rights reserved.
  -
  -   Licensed under the Apache License, Version 2.0 (the "License");
  -   you may not use this file except in compliance with the License.
  -   You may obtain a copy of the License at
  -
  -   http://www.apache.org/licenses/LICENSE-2.0
  -
  -   Unless required by applicable law or agreed to in writing, software
  -   distributed under the License is distributed on an "AS IS" BASIS,
  -   WITHOUT WARRANTIES OR CONDITIONS OF ANY KIND, either express or implied.
  -   See the License for the specific language governing permissions and
  -   limitations under the License.
  -->

<svg width="1920" height="1080" viewBox="0 0 1920 1080" fill="none" xmlns="http://www.w3.org/2000/svg">
<rect width="1920" height="1080" fill="#323232"/>
<path d="M1920 0H0V1080H1920V0Z" fill="url(#paint0_linear_633_14)" fill-opacity="0.5"/>
<rect opacity="0.5" x="43" y="38" width="886" height="905" rx="20" fill="url(#paint1_linear_633_14)"/>
<rect opacity="0.8" x="85" y="132" width="365.209" height="716" rx="20" fill="#9CC1E4"/>
<rect opacity="0.8" x="508" y="132" width="365.209" height="716" rx="20" fill="#9CC1E4"/>
<path d="M218.758 210.438C219.864 210.438 220.893 210.256 221.845 209.892C222.811 209.528 223.7 209.066 224.512 208.506L226.234 210.816C225.268 211.642 224.106 212.293 222.748 212.769C221.39 213.245 220.06 213.483 218.758 213.483C216.56 213.483 214.684 213.014 213.13 212.076C211.59 211.124 210.414 209.794 209.602 208.086C208.79 206.364 208.384 204.348 208.384 202.038C208.384 199.826 208.79 197.845 209.602 196.095C210.428 194.331 211.611 192.945 213.151 191.937C214.705 190.929 216.588 190.425 218.8 190.425C220.214 190.425 221.537 190.642 222.769 191.076C224.015 191.496 225.156 192.133 226.192 192.987L224.47 195.339C223.532 194.681 222.587 194.191 221.635 193.869C220.697 193.533 219.738 193.365 218.758 193.365C216.854 193.365 215.286 194.079 214.054 195.507C212.822 196.935 212.206 199.112 212.206 202.038C212.206 203.998 212.486 205.601 213.046 206.847C213.62 208.079 214.397 208.989 215.377 209.577C216.371 210.151 217.498 210.438 218.758 210.438ZM242.367 190.425C244.453 190.425 246.196 190.901 247.596 191.853C249.01 192.791 250.067 194.121 250.767 195.843C251.481 197.565 251.838 199.595 251.838 201.933C251.838 204.187 251.474 206.182 250.746 207.918C250.018 209.654 248.947 211.019 247.533 212.013C246.133 212.993 244.397 213.483 242.325 213.483C240.253 213.483 238.51 213.007 237.096 212.055C235.682 211.103 234.611 209.766 233.883 208.044C233.169 206.308 232.812 204.285 232.812 201.975C232.812 199.693 233.176 197.684 233.904 195.948C234.632 194.212 235.703 192.861 237.117 191.895C238.545 190.915 240.295 190.425 242.367 190.425ZM242.367 193.302C240.463 193.302 239.021 194.009 238.041 195.423C237.075 196.823 236.592 199.007 236.592 201.975C236.592 204.887 237.068 207.05 238.02 208.464C238.986 209.878 240.421 210.585 242.325 210.585C244.229 210.585 245.657 209.878 246.609 208.464C247.575 207.05 248.058 204.873 248.058 201.933C248.058 198.993 247.582 196.823 246.63 195.423C245.678 194.009 244.257 193.302 242.367 193.302ZM267.739 181.983V207.54C267.739 208.632 268.075 209.409 268.747 209.871C269.433 210.319 270.315 210.543 271.393 210.543C272.065 210.543 272.702 210.473 273.304 210.333C273.906 210.193 274.508 210.004 275.11 209.766L276.055 212.349C275.453 212.643 274.704 212.902 273.808 213.126C272.926 213.364 271.925 213.483 270.805 213.483C268.845 213.483 267.256 212.944 266.038 211.866C264.82 210.774 264.211 209.269 264.211 207.351V184.776H257.428V181.983H267.739ZM320.962 184.083V212.16H317.434V187.905L310.798 191.937L309.265 189.417L317.875 184.083H320.962ZM327.01 210.123V213H310.315V210.123H327.01Z" fill="#161616"/>
<path d="M641.758 210.438C642.864 210.438 643.893 210.256 644.845 209.892C645.811 209.528 646.7 209.066 647.512 208.506L649.234 210.816C648.268 211.642 647.106 212.293 645.748 212.769C644.39 213.245 643.06 213.483 641.758 213.483C639.56 213.483 637.684 213.014 636.13 212.076C634.59 211.124 633.414 209.794 632.602 208.086C631.79 206.364 631.384 204.348 631.384 202.038C631.384 199.826 631.79 197.845 632.602 196.095C633.428 194.331 634.611 192.945 636.151 191.937C637.705 190.929 639.588 190.425 641.8 190.425C643.214 190.425 644.537 190.642 645.769 191.076C647.015 191.496 648.156 192.133 649.192 192.987L647.47 195.339C646.532 194.681 645.587 194.191 644.635 193.869C643.697 193.533 642.738 193.365 641.758 193.365C639.854 193.365 638.286 194.079 637.054 195.507C635.822 196.935 635.206 199.112 635.206 202.038C635.206 203.998 635.486 205.601 636.046 206.847C636.62 208.079 637.397 208.989 638.377 209.577C639.371 210.151 640.498 210.438 641.758 210.438ZM665.367 190.425C667.453 190.425 669.196 190.901 670.596 191.853C672.01 192.791 673.067 194.121 673.767 195.843C674.481 197.565 674.838 199.595 674.838 201.933C674.838 204.187 674.474 206.182 673.746 207.918C673.018 209.654 671.947 211.019 670.533 212.013C669.133 212.993 667.397 213.483 665.325 213.483C663.253 213.483 661.51 213.007 660.096 212.055C658.682 211.103 657.611 209.766 656.883 208.044C656.169 206.308 655.812 204.285 655.812 201.975C655.812 199.693 656.176 197.684 656.904 195.948C657.632 194.212 658.703 192.861 660.117 191.895C661.545 190.915 663.295 190.425 665.367 190.425ZM665.367 193.302C663.463 193.302 662.021 194.009 661.041 195.423C660.075 196.823 659.592 199.007 659.592 201.975C659.592 204.887 660.068 207.05 661.02 208.464C661.986 209.878 663.421 210.585 665.325 210.585C667.229 210.585 668.657 209.878 669.609 208.464C670.575 207.05 671.058 204.873 671.058 201.933C671.058 198.993 670.582 196.823 669.63 195.423C668.678 194.009 667.257 193.302 665.367 193.302ZM690.739 181.983V207.54C690.739 208.632 691.075 209.409 691.747 209.871C692.433 210.319 693.315 210.543 694.393 210.543C695.065 210.543 695.702 210.473 696.304 210.333C696.906 210.193 697.508 210.004 698.11 209.766L699.055 212.349C698.453 212.643 697.704 212.902 696.808 213.126C695.926 213.364 694.925 213.483 693.805 213.483C691.845 213.483 690.256 212.944 689.038 211.866C687.82 210.774 687.211 209.269 687.211 207.351V184.776H680.428V181.983H690.739ZM739.594 183.621C741.414 183.621 742.968 183.971 744.256 184.671C745.558 185.371 746.559 186.33 747.259 187.548C747.959 188.766 748.309 190.145 748.309 191.685C748.309 193.015 748.078 194.317 747.616 195.591C747.154 196.851 746.412 198.181 745.39 199.581C744.382 200.967 743.052 202.507 741.4 204.201C739.762 205.895 737.746 207.827 735.352 209.997H748.981L748.54 213H731.341V210.123C733.525 208.037 735.38 206.21 736.906 204.642C738.446 203.074 739.713 201.702 740.707 200.526C741.715 199.336 742.499 198.258 743.059 197.292C743.633 196.326 744.032 195.409 744.256 194.541C744.48 193.659 744.592 192.749 744.592 191.811C744.592 190.187 744.13 188.906 743.206 187.968C742.296 187.03 741.036 186.561 739.426 186.561C737.998 186.561 736.829 186.806 735.919 187.296C735.009 187.786 734.099 188.57 733.189 189.648L730.753 187.758C731.901 186.358 733.175 185.322 734.575 184.65C735.975 183.964 737.648 183.621 739.594 183.621Z" fill="#161616"/>
<path d="M386.391 105.438C387.497 105.438 388.526 105.256 389.478 104.892C390.444 104.528 391.333 104.066 392.145 103.506L393.867 105.816C392.901 106.642 391.739 107.293 390.381 107.769C389.023 108.245 387.693 108.483 386.391 108.483C384.193 108.483 382.317 108.014 380.763 107.076C379.223 106.124 378.047 104.794 377.235 103.086C376.423 101.364 376.017 99.348 376.017 97.038C376.017 94.826 376.423 92.845 377.235 91.095C378.061 89.331 379.244 87.945 380.784 86.937C382.338 85.929 384.221 85.425 386.433 85.425C387.847 85.425 389.17 85.642 390.402 86.076C391.648 86.496 392.789 87.133 393.825 87.987L392.103 90.339C391.165 89.681 390.22 89.191 389.268 88.869C388.33 88.533 387.371 88.365 386.391 88.365C384.487 88.365 382.919 89.079 381.687 90.507C380.455 91.935 379.839 94.112 379.839 97.038C379.839 98.998 380.119 100.601 380.679 101.847C381.253 103.079 382.03 103.989 383.01 104.577C384.004 105.151 385.131 105.438 386.391 105.438ZM409.999 85.425C412.085 85.425 413.828 85.901 415.228 86.853C416.642 87.791 417.699 89.121 418.399 90.843C419.113 92.565 419.47 94.595 419.47 96.933C419.47 99.187 419.106 101.182 418.378 102.918C417.65 104.654 416.579 106.019 415.165 107.013C413.765 107.993 412.029 108.483 409.957 108.483C407.885 108.483 406.142 108.007 404.728 107.055C403.314 106.103 402.243 104.766 401.515 103.044C400.801 101.308 400.444 99.285 400.444 96.975C400.444 94.693 400.808 92.684 401.536 90.948C402.264 89.212 403.335 87.861 404.749 86.895C406.177 85.915 407.927 85.425 409.999 85.425ZM409.999 88.302C408.095 88.302 406.653 89.009 405.673 90.423C404.707 91.823 404.224 94.007 404.224 96.975C404.224 99.887 404.7 102.05 405.652 103.464C406.618 104.878 408.053 105.585 409.957 105.585C411.861 105.585 413.289 104.878 414.241 103.464C415.207 102.05 415.69 99.873 415.69 96.933C415.69 93.993 415.214 91.823 414.262 90.423C413.31 89.009 411.889 88.302 409.999 88.302ZM426.762 108V85.887H429.765L430.038 88.953C430.934 87.819 432.054 86.951 433.398 86.349C434.756 85.733 436.072 85.425 437.346 85.425C439.516 85.425 441.091 85.999 442.071 87.147C443.065 88.295 443.562 89.891 443.562 91.935V108H440.034V94.539C440.034 93.027 439.95 91.809 439.782 90.885C439.614 89.947 439.264 89.268 438.732 88.848C438.2 88.414 437.374 88.197 436.254 88.197C435.386 88.197 434.567 88.386 433.797 88.764C433.041 89.142 432.362 89.618 431.76 90.192C431.172 90.752 430.682 91.319 430.29 91.893V108H426.762ZM469.502 106.887C468.746 107.391 467.829 107.783 466.751 108.063C465.673 108.343 464.616 108.483 463.58 108.483C461.2 108.483 459.366 107.86 458.078 106.614C456.79 105.368 456.146 103.765 456.146 101.805V88.617H451.064V85.887H456.146V80.868L459.674 80.448V85.887H467.318L466.898 88.617H459.674V101.763C459.674 102.995 459.996 103.933 460.64 104.577C461.298 105.221 462.383 105.543 463.895 105.543C464.721 105.543 465.484 105.445 466.184 105.249C466.884 105.053 467.535 104.801 468.137 104.493L469.502 106.887ZM492.963 103.17C492.963 104.052 493.11 104.696 493.404 105.102C493.698 105.508 494.153 105.809 494.769 106.005L493.908 108.483C492.956 108.357 492.123 108.056 491.409 107.58C490.695 107.09 490.177 106.355 489.855 105.375C489.057 106.397 488.063 107.174 486.873 107.706C485.683 108.224 484.367 108.483 482.925 108.483C480.713 108.483 478.97 107.86 477.696 106.614C476.422 105.368 475.785 103.716 475.785 101.658C475.785 99.376 476.674 97.626 478.452 96.408C480.23 95.19 482.799 94.581 486.159 94.581H489.414V92.733C489.414 91.137 488.945 90.01 488.007 89.352C487.083 88.68 485.795 88.344 484.143 88.344C483.415 88.344 482.561 88.435 481.581 88.617C480.601 88.785 479.537 89.072 478.389 89.478L477.465 86.811C478.823 86.307 480.097 85.95 481.287 85.74C482.477 85.53 483.611 85.425 484.689 85.425C487.447 85.425 489.512 86.069 490.884 87.357C492.27 88.631 492.963 90.367 492.963 92.565V103.17ZM483.828 105.795C484.92 105.795 485.963 105.522 486.957 104.976C487.951 104.416 488.77 103.646 489.414 102.666V96.975H486.222C483.786 96.975 482.064 97.395 481.056 98.235C480.062 99.075 479.565 100.202 479.565 101.616C479.565 102.988 479.915 104.031 480.615 104.745C481.329 105.445 482.4 105.795 483.828 105.795ZM513.506 85.887V105.207H519.743V108H503.153V105.207H509.978V88.68H503.363V85.887H513.506ZM510.692 75.534C511.476 75.534 512.099 75.772 512.561 76.248C513.037 76.724 513.275 77.305 513.275 77.991C513.275 78.705 513.037 79.307 512.561 79.797C512.099 80.273 511.476 80.511 510.692 80.511C509.95 80.511 509.341 80.273 508.865 79.797C508.389 79.307 508.151 78.705 508.151 77.991C508.151 77.305 508.389 76.724 508.865 76.248C509.341 75.772 509.95 75.534 510.692 75.534ZM527.496 108V85.887H530.499L530.772 88.953C531.668 87.819 532.788 86.951 534.132 86.349C535.49 85.733 536.806 85.425 538.08 85.425C540.25 85.425 541.825 85.999 542.805 87.147C543.799 88.295 544.296 89.891 544.296 91.935V108H540.768V94.539C540.768 93.027 540.684 91.809 540.516 90.885C540.348 89.947 539.998 89.268 539.466 88.848C538.934 88.414 538.108 88.197 536.988 88.197C536.12 88.197 535.301 88.386 534.531 88.764C533.775 89.142 533.096 89.618 532.494 90.192C531.906 90.752 531.416 91.319 531.024 91.893V108H527.496ZM555.452 98.193C555.522 99.901 555.851 101.301 556.439 102.393C557.027 103.471 557.804 104.269 558.77 104.787C559.736 105.291 560.786 105.543 561.92 105.543C563.054 105.543 564.076 105.375 564.986 105.039C565.91 104.703 566.855 104.206 567.821 103.548L569.48 105.879C568.444 106.691 567.261 107.328 565.931 107.79C564.615 108.252 563.264 108.483 561.878 108.483C559.736 108.483 557.909 108 556.397 107.034C554.885 106.068 553.73 104.724 552.932 103.002C552.148 101.266 551.756 99.257 551.756 96.975C551.756 94.735 552.155 92.747 552.953 91.011C553.751 89.275 554.871 87.91 556.313 86.916C557.755 85.922 559.456 85.425 561.416 85.425C563.278 85.425 564.881 85.866 566.225 86.748C567.569 87.616 568.598 88.862 569.312 90.486C570.04 92.096 570.404 94.021 570.404 96.261C570.404 96.639 570.397 96.996 570.383 97.332C570.369 97.654 570.348 97.941 570.32 98.193H555.452ZM561.458 88.323C559.82 88.323 558.448 88.904 557.342 90.066C556.25 91.228 555.627 93.027 555.473 95.463H567.002C566.96 93.097 566.442 91.319 565.448 90.129C564.454 88.925 563.124 88.323 561.458 88.323ZM578.074 108V105.291H581.518V88.596H578.074V85.887H584.206L584.857 91.116C585.711 89.296 586.747 87.889 587.965 86.895C589.183 85.901 590.793 85.404 592.795 85.404C593.411 85.404 593.957 85.453 594.433 85.551C594.923 85.635 595.42 85.747 595.924 85.887L594.895 89.037C594.433 88.911 594.013 88.82 593.635 88.764C593.257 88.694 592.823 88.659 592.333 88.659C590.639 88.659 589.183 89.261 587.965 90.465C586.747 91.669 585.774 93.489 585.046 95.925V105.291H589.54V108H578.074ZM592.522 93.363V88.554L592.879 85.887H595.924L595.42 93.363H592.522Z" fill="#F2F2F2"/>
<path d="M1204.61 300.18C1204.61 301.553 1204.31 302.753 1203.71 303.78C1203.12 304.807 1202.32 305.653 1201.31 306.32C1200.3 306.987 1199.16 307.473 1197.89 307.78L1206.05 320H1201.89L1194.37 308.18H1190.65V320H1187.17V292.46H1194.25C1197.65 292.46 1200.22 293.113 1201.97 294.42C1203.73 295.713 1204.61 297.633 1204.61 300.18ZM1200.89 300.18C1200.89 298.407 1200.38 297.14 1199.37 296.38C1198.36 295.607 1196.78 295.22 1194.65 295.22H1190.65V305.46H1194.65C1196.62 305.46 1198.16 305.06 1199.25 304.26C1200.34 303.447 1200.89 302.087 1200.89 300.18ZM1213.75 310.66C1213.82 312.287 1214.13 313.62 1214.69 314.66C1215.25 315.687 1215.99 316.447 1216.91 316.94C1217.83 317.42 1218.83 317.66 1219.91 317.66C1220.99 317.66 1221.97 317.5 1222.83 317.18C1223.71 316.86 1224.61 316.387 1225.53 315.76L1227.11 317.98C1226.13 318.753 1225 319.36 1223.73 319.8C1222.48 320.24 1221.19 320.46 1219.87 320.46C1217.83 320.46 1216.09 320 1214.65 319.08C1213.21 318.16 1212.11 316.88 1211.35 315.24C1210.61 313.587 1210.23 311.673 1210.23 309.5C1210.23 307.367 1210.61 305.473 1211.37 303.82C1212.13 302.167 1213.2 300.867 1214.57 299.92C1215.95 298.973 1217.57 298.5 1219.43 298.5C1221.21 298.5 1222.73 298.92 1224.01 299.76C1225.29 300.587 1226.27 301.773 1226.95 303.32C1227.65 304.853 1227.99 306.687 1227.99 308.82C1227.99 309.18 1227.99 309.52 1227.97 309.84C1227.96 310.147 1227.94 310.42 1227.91 310.66H1213.75ZM1219.47 301.26C1217.91 301.26 1216.61 301.813 1215.55 302.92C1214.51 304.027 1213.92 305.74 1213.77 308.06H1224.75C1224.71 305.807 1224.22 304.113 1223.27 302.98C1222.33 301.833 1221.06 301.26 1219.47 301.26ZM1235.1 320V298.94H1237.96L1238.22 301.86C1239.07 300.78 1240.14 299.953 1241.42 299.38C1242.71 298.793 1243.96 298.5 1245.18 298.5C1247.24 298.5 1248.74 299.047 1249.68 300.14C1250.62 301.233 1251.1 302.753 1251.1 304.7V320H1247.74V307.18C1247.74 305.74 1247.66 304.58 1247.5 303.7C1247.34 302.807 1247 302.16 1246.5 301.76C1245.99 301.347 1245.2 301.14 1244.14 301.14C1243.31 301.14 1242.53 301.32 1241.8 301.68C1241.08 302.04 1240.43 302.493 1239.86 303.04C1239.3 303.573 1238.83 304.113 1238.46 304.66V320H1235.1ZM1271.68 290.04L1275.04 290.46V320H1272.1L1271.78 317.22C1271 318.34 1270.09 319.16 1269.06 319.68C1268.05 320.2 1266.96 320.46 1265.8 320.46C1263.98 320.46 1262.47 320 1261.28 319.08C1260.1 318.16 1259.22 316.88 1258.64 315.24C1258.07 313.587 1257.78 311.673 1257.78 309.5C1257.78 307.393 1258.11 305.513 1258.76 303.86C1259.42 302.193 1260.36 300.887 1261.58 299.94C1262.82 298.98 1264.31 298.5 1266.04 298.5C1267.26 298.5 1268.32 298.713 1269.24 299.14C1270.16 299.553 1270.98 300.167 1271.68 300.98V290.04ZM1266.92 301.2C1265.16 301.2 1263.81 301.887 1262.86 303.26C1261.92 304.633 1261.44 306.713 1261.44 309.5C1261.44 311.313 1261.64 312.833 1262.02 314.06C1262.41 315.287 1262.98 316.207 1263.72 316.82C1264.48 317.433 1265.41 317.74 1266.5 317.74C1267.7 317.74 1268.72 317.4 1269.56 316.72C1270.42 316.04 1271.12 315.273 1271.68 314.42V303.9C1271.11 303.047 1270.42 302.387 1269.6 301.92C1268.79 301.44 1267.9 301.2 1266.92 301.2ZM1285.71 310.66C1285.77 312.287 1286.09 313.62 1286.65 314.66C1287.21 315.687 1287.95 316.447 1288.87 316.94C1289.79 317.42 1290.79 317.66 1291.87 317.66C1292.95 317.66 1293.92 317.5 1294.79 317.18C1295.67 316.86 1296.57 316.387 1297.49 315.76L1299.07 317.98C1298.08 318.753 1296.95 319.36 1295.69 319.8C1294.43 320.24 1293.15 320.46 1291.83 320.46C1289.79 320.46 1288.05 320 1286.61 319.08C1285.17 318.16 1284.07 316.88 1283.31 315.24C1282.56 313.587 1282.19 311.673 1282.19 309.5C1282.19 307.367 1282.57 305.473 1283.33 303.82C1284.09 302.167 1285.15 300.867 1286.53 299.92C1287.9 298.973 1289.52 298.5 1291.39 298.5C1293.16 298.5 1294.69 298.92 1295.97 299.76C1297.25 300.587 1298.23 301.773 1298.91 303.32C1299.6 304.853 1299.95 306.687 1299.95 308.82C1299.95 309.18 1299.94 309.52 1299.93 309.84C1299.91 310.147 1299.89 310.42 1299.87 310.66H1285.71ZM1291.43 301.26C1289.87 301.26 1288.56 301.813 1287.51 302.92C1286.47 304.027 1285.87 305.74 1285.73 308.06H1296.71C1296.67 305.807 1296.17 304.113 1295.23 302.98C1294.28 301.833 1293.01 301.26 1291.43 301.26ZM1307.25 320V317.42H1310.53V301.52H1307.25V298.94H1313.09L1313.71 303.92C1314.52 302.187 1315.51 300.847 1316.67 299.9C1317.83 298.953 1319.36 298.48 1321.27 298.48C1321.86 298.48 1322.38 298.527 1322.83 298.62C1323.3 298.7 1323.77 298.807 1324.25 298.94L1323.27 301.94C1322.83 301.82 1322.43 301.733 1322.07 301.68C1321.71 301.613 1321.3 301.58 1320.83 301.58C1319.22 301.58 1317.83 302.153 1316.67 303.3C1315.51 304.447 1314.58 306.18 1313.89 308.5V317.42H1318.17V320H1307.25ZM1321.01 306.06V301.48L1321.35 298.94H1324.25L1323.77 306.06H1321.01ZM1345.58 300.96C1345.58 299.533 1345.3 298.407 1344.74 297.58C1344.18 296.74 1343.41 296.14 1342.44 295.78C1341.46 295.407 1340.35 295.22 1339.1 295.22H1335.12V306.98H1338.96C1340.25 306.98 1341.39 306.807 1342.38 306.46C1343.36 306.1 1344.14 305.487 1344.72 304.62C1345.29 303.74 1345.58 302.52 1345.58 300.96ZM1349.3 300.92C1349.3 303.067 1348.84 304.787 1347.92 306.08C1347.01 307.373 1345.76 308.313 1344.16 308.9C1342.56 309.487 1340.72 309.78 1338.64 309.78H1335.12V320H1331.64V292.46H1338.68C1341.96 292.46 1344.54 293.153 1346.44 294.54C1348.34 295.913 1349.3 298.04 1349.3 300.92ZM1365.68 298.94V317.34H1371.62V320H1355.82V317.34H1362.32V301.6H1356.02V298.94H1365.68ZM1363 289.08C1363.75 289.08 1364.34 289.307 1364.78 289.76C1365.23 290.213 1365.46 290.767 1365.46 291.42C1365.46 292.1 1365.23 292.673 1364.78 293.14C1364.34 293.593 1363.75 293.82 1363 293.82C1362.29 293.82 1361.71 293.593 1361.26 293.14C1360.81 292.673 1360.58 292.1 1360.58 291.42C1360.58 290.767 1360.81 290.213 1361.26 289.76C1361.71 289.307 1362.29 289.08 1363 289.08ZM1388.42 298.5C1390.29 298.5 1391.78 298.953 1392.88 299.86C1394 300.767 1394.81 302.047 1395.3 303.7C1395.8 305.34 1396.04 307.26 1396.04 309.46C1396.04 311.58 1395.74 313.473 1395.14 315.14C1394.56 316.793 1393.66 318.093 1392.46 319.04C1391.26 319.987 1389.75 320.46 1387.92 320.46C1385.62 320.46 1383.76 319.647 1382.36 318.02V328.06L1379 328.48V298.94H1381.86L1382.14 301.88C1382.92 300.8 1383.84 299.967 1384.9 299.38C1385.98 298.793 1387.16 298.5 1388.42 298.5ZM1387.62 301.2C1386.46 301.2 1385.44 301.553 1384.54 302.26C1383.66 302.953 1382.94 303.727 1382.36 304.58V315.02C1382.91 315.833 1383.6 316.48 1384.42 316.96C1385.26 317.427 1386.18 317.66 1387.18 317.66C1388.93 317.66 1390.24 316.993 1391.12 315.66C1392 314.327 1392.44 312.253 1392.44 309.44C1392.44 307.6 1392.27 306.073 1391.92 304.86C1391.58 303.633 1391.05 302.72 1390.34 302.12C1389.64 301.507 1388.73 301.2 1387.62 301.2ZM1405.63 310.66C1405.7 312.287 1406.01 313.62 1406.57 314.66C1407.13 315.687 1407.87 316.447 1408.79 316.94C1409.71 317.42 1410.71 317.66 1411.79 317.66C1412.87 317.66 1413.84 317.5 1414.71 317.18C1415.59 316.86 1416.49 316.387 1417.41 315.76L1418.99 317.98C1418 318.753 1416.88 319.36 1415.61 319.8C1414.36 320.24 1413.07 320.46 1411.75 320.46C1409.71 320.46 1407.97 320 1406.53 319.08C1405.09 318.16 1403.99 316.88 1403.23 315.24C1402.48 313.587 1402.11 311.673 1402.11 309.5C1402.11 307.367 1402.49 305.473 1403.25 303.82C1404.01 302.167 1405.08 300.867 1406.45 299.92C1407.82 298.973 1409.44 298.5 1411.31 298.5C1413.08 298.5 1414.61 298.92 1415.89 299.76C1417.17 300.587 1418.15 301.773 1418.83 303.32C1419.52 304.853 1419.87 306.687 1419.87 308.82C1419.87 309.18 1419.86 309.52 1419.85 309.84C1419.84 310.147 1419.82 310.42 1419.79 310.66H1405.63ZM1411.35 301.26C1409.79 301.26 1408.48 301.813 1407.43 302.92C1406.39 304.027 1405.8 305.74 1405.65 308.06H1416.63C1416.59 305.807 1416.1 304.113 1415.15 302.98C1414.2 301.833 1412.94 301.26 1411.35 301.26ZM1435.17 290.46V314.8C1435.17 315.84 1435.49 316.58 1436.13 317.02C1436.79 317.447 1437.63 317.66 1438.65 317.66C1439.29 317.66 1439.9 317.593 1440.47 317.46C1441.05 317.327 1441.62 317.147 1442.19 316.92L1443.09 319.38C1442.52 319.66 1441.81 319.907 1440.95 320.12C1440.11 320.347 1439.16 320.46 1438.09 320.46C1436.23 320.46 1434.71 319.947 1433.55 318.92C1432.39 317.88 1431.81 316.447 1431.81 314.62V293.12H1425.35V290.46H1435.17ZM1461.62 298.94V317.34H1467.56V320H1451.76V317.34H1458.26V301.6H1451.96V298.94H1461.62ZM1458.94 289.08C1459.68 289.08 1460.28 289.307 1460.72 289.76C1461.17 290.213 1461.4 290.767 1461.4 291.42C1461.4 292.1 1461.17 292.673 1460.72 293.14C1460.28 293.593 1459.68 293.82 1458.94 293.82C1458.23 293.82 1457.65 293.593 1457.2 293.14C1456.74 292.673 1456.52 292.1 1456.52 291.42C1456.52 290.767 1456.74 290.213 1457.2 289.76C1457.65 289.307 1458.23 289.08 1458.94 289.08ZM1474.94 320V298.94H1477.8L1478.06 301.86C1478.92 300.78 1479.98 299.953 1481.26 299.38C1482.56 298.793 1483.81 298.5 1485.02 298.5C1487.09 298.5 1488.59 299.047 1489.52 300.14C1490.47 301.233 1490.94 302.753 1490.94 304.7V320H1487.58V307.18C1487.58 305.74 1487.5 304.58 1487.34 303.7C1487.18 302.807 1486.85 302.16 1486.34 301.76C1485.84 301.347 1485.05 301.14 1483.98 301.14C1483.16 301.14 1482.38 301.32 1481.64 301.68C1480.92 302.04 1480.28 302.493 1479.7 303.04C1479.14 303.573 1478.68 304.113 1478.3 304.66V320H1474.94ZM1501.57 310.66C1501.63 312.287 1501.95 313.62 1502.51 314.66C1503.07 315.687 1503.81 316.447 1504.73 316.94C1505.65 317.42 1506.65 317.66 1507.73 317.66C1508.81 317.66 1509.78 317.5 1510.65 317.18C1511.53 316.86 1512.43 316.387 1513.35 315.76L1514.93 317.98C1513.94 318.753 1512.81 319.36 1511.55 319.8C1510.29 320.24 1509.01 320.46 1507.69 320.46C1505.65 320.46 1503.91 320 1502.47 319.08C1501.03 318.16 1499.93 316.88 1499.17 315.24C1498.42 313.587 1498.05 311.673 1498.05 309.5C1498.05 307.367 1498.43 305.473 1499.19 303.82C1499.95 302.167 1501.01 300.867 1502.39 299.92C1503.76 298.973 1505.38 298.5 1507.25 298.5C1509.02 298.5 1510.55 298.92 1511.83 299.76C1513.11 300.587 1514.09 301.773 1514.77 303.32C1515.46 304.853 1515.81 306.687 1515.81 308.82C1515.81 309.18 1515.8 309.52 1515.79 309.84C1515.77 310.147 1515.75 310.42 1515.73 310.66H1501.57ZM1507.29 301.26C1505.73 301.26 1504.42 301.813 1503.37 302.92C1502.33 304.027 1501.73 305.74 1501.59 308.06H1512.57C1512.53 305.807 1512.03 304.113 1511.09 302.98C1510.14 301.833 1508.87 301.26 1507.29 301.26Z" fill="url(#paint2_linear_633_14)"/>
<path d="M1167.83 309.828C1169.39 308.266 1169.39 305.734 1167.83 304.172L1142.37 278.716C1140.81 277.154 1138.28 277.154 1136.72 278.716C1135.15 280.278 1135.15 282.81 1136.72 284.373L1159.34 307L1136.72 329.627C1135.15 331.19 1135.15 333.722 1136.72 335.284C1138.28 336.846 1140.81 336.846 1142.37 335.284L1167.83 309.828ZM790 311H1165V303H790V311Z" fill="#505050"/>
<path d="M1197.61 403.18C1197.61 404.553 1197.31 405.753 1196.71 406.78C1196.12 407.807 1195.32 408.653 1194.31 409.32C1193.3 409.987 1192.16 410.473 1190.89 410.78L1199.05 423H1194.89L1187.37 411.18H1183.65V423H1180.17V395.46H1187.25C1190.65 395.46 1193.22 396.113 1194.97 397.42C1196.73 398.713 1197.61 400.633 1197.61 403.18ZM1193.89 403.18C1193.89 401.407 1193.38 400.14 1192.37 399.38C1191.36 398.607 1189.78 398.22 1187.65 398.22H1183.65V408.46H1187.65C1189.62 408.46 1191.16 408.06 1192.25 407.26C1193.34 406.447 1193.89 405.087 1193.89 403.18ZM1206.75 413.66C1206.82 415.287 1207.13 416.62 1207.69 417.66C1208.25 418.687 1208.99 419.447 1209.91 419.94C1210.83 420.42 1211.83 420.66 1212.91 420.66C1213.99 420.66 1214.97 420.5 1215.83 420.18C1216.71 419.86 1217.61 419.387 1218.53 418.76L1220.11 420.98C1219.13 421.753 1218 422.36 1216.73 422.8C1215.48 423.24 1214.19 423.46 1212.87 423.46C1210.83 423.46 1209.09 423 1207.65 422.08C1206.21 421.16 1205.11 419.88 1204.35 418.24C1203.61 416.587 1203.23 414.673 1203.23 412.5C1203.23 410.367 1203.61 408.473 1204.37 406.82C1205.13 405.167 1206.2 403.867 1207.57 402.92C1208.95 401.973 1210.57 401.5 1212.43 401.5C1214.21 401.5 1215.73 401.92 1217.01 402.76C1218.29 403.587 1219.27 404.773 1219.95 406.32C1220.65 407.853 1220.99 409.687 1220.99 411.82C1220.99 412.18 1220.99 412.52 1220.97 412.84C1220.96 413.147 1220.94 413.42 1220.91 413.66H1206.75ZM1212.47 404.26C1210.91 404.26 1209.61 404.813 1208.55 405.92C1207.51 407.027 1206.92 408.74 1206.77 411.06H1217.75C1217.71 408.807 1217.22 407.113 1216.27 405.98C1215.33 404.833 1214.06 404.26 1212.47 404.26ZM1228.1 423V401.94H1230.96L1231.22 404.86C1232.07 403.78 1233.14 402.953 1234.42 402.38C1235.71 401.793 1236.96 401.5 1238.18 401.5C1240.24 401.5 1241.74 402.047 1242.68 403.14C1243.62 404.233 1244.1 405.753 1244.1 407.7V423H1240.74V410.18C1240.74 408.74 1240.66 407.58 1240.5 406.7C1240.34 405.807 1240 405.16 1239.5 404.76C1238.99 404.347 1238.2 404.14 1237.14 404.14C1236.31 404.14 1235.53 404.32 1234.8 404.68C1234.08 405.04 1233.43 405.493 1232.86 406.04C1232.3 406.573 1231.83 407.113 1231.46 407.66V423H1228.1ZM1264.68 393.04L1268.04 393.46V423H1265.1L1264.78 420.22C1264 421.34 1263.09 422.16 1262.06 422.68C1261.05 423.2 1259.96 423.46 1258.8 423.46C1256.98 423.46 1255.47 423 1254.28 422.08C1253.1 421.16 1252.22 419.88 1251.64 418.24C1251.07 416.587 1250.78 414.673 1250.78 412.5C1250.78 410.393 1251.11 408.513 1251.76 406.86C1252.42 405.193 1253.36 403.887 1254.58 402.94C1255.82 401.98 1257.31 401.5 1259.04 401.5C1260.26 401.5 1261.32 401.713 1262.24 402.14C1263.16 402.553 1263.98 403.167 1264.68 403.98V393.04ZM1259.92 404.2C1258.16 404.2 1256.81 404.887 1255.86 406.26C1254.92 407.633 1254.44 409.713 1254.44 412.5C1254.44 414.313 1254.64 415.833 1255.02 417.06C1255.41 418.287 1255.98 419.207 1256.72 419.82C1257.48 420.433 1258.41 420.74 1259.5 420.74C1260.7 420.74 1261.72 420.4 1262.56 419.72C1263.42 419.04 1264.12 418.273 1264.68 417.42V406.9C1264.11 406.047 1263.42 405.387 1262.6 404.92C1261.79 404.44 1260.9 404.2 1259.92 404.2ZM1278.71 413.66C1278.77 415.287 1279.09 416.62 1279.65 417.66C1280.21 418.687 1280.95 419.447 1281.87 419.94C1282.79 420.42 1283.79 420.66 1284.87 420.66C1285.95 420.66 1286.92 420.5 1287.79 420.18C1288.67 419.86 1289.57 419.387 1290.49 418.76L1292.07 420.98C1291.08 421.753 1289.95 422.36 1288.69 422.8C1287.43 423.24 1286.15 423.46 1284.83 423.46C1282.79 423.46 1281.05 423 1279.61 422.08C1278.17 421.16 1277.07 419.88 1276.31 418.24C1275.56 416.587 1275.19 414.673 1275.19 412.5C1275.19 410.367 1275.57 408.473 1276.33 406.82C1277.09 405.167 1278.15 403.867 1279.53 402.92C1280.9 401.973 1282.52 401.5 1284.39 401.5C1286.16 401.5 1287.69 401.92 1288.97 402.76C1290.25 403.587 1291.23 404.773 1291.91 406.32C1292.6 407.853 1292.95 409.687 1292.95 411.82C1292.95 412.18 1292.94 412.52 1292.93 412.84C1292.91 413.147 1292.89 413.42 1292.87 413.66H1278.71ZM1284.43 404.26C1282.87 404.26 1281.56 404.813 1280.51 405.92C1279.47 407.027 1278.87 408.74 1278.73 411.06H1289.71C1289.67 408.807 1289.17 407.113 1288.23 405.98C1287.28 404.833 1286.01 404.26 1284.43 404.26ZM1300.25 423V420.42H1303.53V404.52H1300.25V401.94H1306.09L1306.71 406.92C1307.52 405.187 1308.51 403.847 1309.67 402.9C1310.83 401.953 1312.36 401.48 1314.27 401.48C1314.86 401.48 1315.38 401.527 1315.83 401.62C1316.3 401.7 1316.77 401.807 1317.25 401.94L1316.27 404.94C1315.83 404.82 1315.43 404.733 1315.07 404.68C1314.71 404.613 1314.3 404.58 1313.83 404.58C1312.22 404.58 1310.83 405.153 1309.67 406.3C1308.51 407.447 1307.58 409.18 1306.89 411.5V420.42H1311.17V423H1300.25ZM1314.01 409.06V404.48L1314.35 401.94H1317.25L1316.77 409.06H1314.01ZM1338.58 403.96C1338.58 402.533 1338.3 401.407 1337.74 400.58C1337.18 399.74 1336.41 399.14 1335.44 398.78C1334.46 398.407 1333.35 398.22 1332.1 398.22H1328.12V409.98H1331.96C1333.25 409.98 1334.39 409.807 1335.38 409.46C1336.36 409.1 1337.14 408.487 1337.72 407.62C1338.29 406.74 1338.58 405.52 1338.58 403.96ZM1342.3 403.92C1342.3 406.067 1341.84 407.787 1340.92 409.08C1340.01 410.373 1338.76 411.313 1337.16 411.9C1335.56 412.487 1333.72 412.78 1331.64 412.78H1328.12V423H1324.64V395.46H1331.68C1334.96 395.46 1337.54 396.153 1339.44 397.54C1341.34 398.913 1342.3 401.04 1342.3 403.92ZM1358.68 401.94V420.34H1364.62V423H1348.82V420.34H1355.32V404.6H1349.02V401.94H1358.68ZM1356 392.08C1356.75 392.08 1357.34 392.307 1357.78 392.76C1358.23 393.213 1358.46 393.767 1358.46 394.42C1358.46 395.1 1358.23 395.673 1357.78 396.14C1357.34 396.593 1356.75 396.82 1356 396.82C1355.29 396.82 1354.71 396.593 1354.26 396.14C1353.81 395.673 1353.58 395.1 1353.58 394.42C1353.58 393.767 1353.81 393.213 1354.26 392.76C1354.71 392.307 1355.29 392.08 1356 392.08ZM1381.42 401.5C1383.29 401.5 1384.78 401.953 1385.88 402.86C1387 403.767 1387.81 405.047 1388.3 406.7C1388.8 408.34 1389.04 410.26 1389.04 412.46C1389.04 414.58 1388.74 416.473 1388.14 418.14C1387.56 419.793 1386.66 421.093 1385.46 422.04C1384.26 422.987 1382.75 423.46 1380.92 423.46C1378.62 423.46 1376.76 422.647 1375.36 421.02V431.06L1372 431.48V401.94H1374.86L1375.14 404.88C1375.92 403.8 1376.84 402.967 1377.9 402.38C1378.98 401.793 1380.16 401.5 1381.42 401.5ZM1380.62 404.2C1379.46 404.2 1378.44 404.553 1377.54 405.26C1376.66 405.953 1375.94 406.727 1375.36 407.58V418.02C1375.91 418.833 1376.6 419.48 1377.42 419.96C1378.26 420.427 1379.18 420.66 1380.18 420.66C1381.93 420.66 1383.24 419.993 1384.12 418.66C1385 417.327 1385.44 415.253 1385.44 412.44C1385.44 410.6 1385.27 409.073 1384.92 407.86C1384.58 406.633 1384.05 405.72 1383.34 405.12C1382.64 404.507 1381.73 404.2 1380.62 404.2ZM1398.63 413.66C1398.7 415.287 1399.01 416.62 1399.57 417.66C1400.13 418.687 1400.87 419.447 1401.79 419.94C1402.71 420.42 1403.71 420.66 1404.79 420.66C1405.87 420.66 1406.84 420.5 1407.71 420.18C1408.59 419.86 1409.49 419.387 1410.41 418.76L1411.99 420.98C1411 421.753 1409.88 422.36 1408.61 422.8C1407.36 423.24 1406.07 423.46 1404.75 423.46C1402.71 423.46 1400.97 423 1399.53 422.08C1398.09 421.16 1396.99 419.88 1396.23 418.24C1395.48 416.587 1395.11 414.673 1395.11 412.5C1395.11 410.367 1395.49 408.473 1396.25 406.82C1397.01 405.167 1398.08 403.867 1399.45 402.92C1400.82 401.973 1402.44 401.5 1404.31 401.5C1406.08 401.5 1407.61 401.92 1408.89 402.76C1410.17 403.587 1411.15 404.773 1411.83 406.32C1412.52 407.853 1412.87 409.687 1412.87 411.82C1412.87 412.18 1412.86 412.52 1412.85 412.84C1412.84 413.147 1412.82 413.42 1412.79 413.66H1398.63ZM1404.35 404.26C1402.79 404.26 1401.48 404.813 1400.43 405.92C1399.39 407.027 1398.8 408.74 1398.65 411.06H1409.63C1409.59 408.807 1409.1 407.113 1408.15 405.98C1407.2 404.833 1405.94 404.26 1404.35 404.26ZM1428.17 393.46V417.8C1428.17 418.84 1428.49 419.58 1429.13 420.02C1429.79 420.447 1430.63 420.66 1431.65 420.66C1432.29 420.66 1432.9 420.593 1433.47 420.46C1434.05 420.327 1434.62 420.147 1435.19 419.92L1436.09 422.38C1435.52 422.66 1434.81 422.907 1433.95 423.12C1433.11 423.347 1432.16 423.46 1431.09 423.46C1429.23 423.46 1427.71 422.947 1426.55 421.92C1425.39 420.88 1424.81 419.447 1424.81 417.62V396.12H1418.35V393.46H1428.17ZM1454.62 401.94V420.34H1460.56V423H1444.76V420.34H1451.26V404.6H1444.96V401.94H1454.62ZM1451.94 392.08C1452.68 392.08 1453.28 392.307 1453.72 392.76C1454.17 393.213 1454.4 393.767 1454.4 394.42C1454.4 395.1 1454.17 395.673 1453.72 396.14C1453.28 396.593 1452.68 396.82 1451.94 396.82C1451.23 396.82 1450.65 396.593 1450.2 396.14C1449.74 395.673 1449.52 395.1 1449.52 394.42C1449.52 393.767 1449.74 393.213 1450.2 392.76C1450.65 392.307 1451.23 392.08 1451.94 392.08ZM1467.94 423V401.94H1470.8L1471.06 404.86C1471.92 403.78 1472.98 402.953 1474.26 402.38C1475.56 401.793 1476.81 401.5 1478.02 401.5C1480.09 401.5 1481.59 402.047 1482.52 403.14C1483.47 404.233 1483.94 405.753 1483.94 407.7V423H1480.58V410.18C1480.58 408.74 1480.5 407.58 1480.34 406.7C1480.18 405.807 1479.85 405.16 1479.34 404.76C1478.84 404.347 1478.05 404.14 1476.98 404.14C1476.16 404.14 1475.38 404.32 1474.64 404.68C1473.92 405.04 1473.28 405.493 1472.7 406.04C1472.14 406.573 1471.68 407.113 1471.3 407.66V423H1467.94ZM1494.57 413.66C1494.63 415.287 1494.95 416.62 1495.51 417.66C1496.07 418.687 1496.81 419.447 1497.73 419.94C1498.65 420.42 1499.65 420.66 1500.73 420.66C1501.81 420.66 1502.78 420.5 1503.65 420.18C1504.53 419.86 1505.43 419.387 1506.35 418.76L1507.93 420.98C1506.94 421.753 1505.81 422.36 1504.55 422.8C1503.29 423.24 1502.01 423.46 1500.69 423.46C1498.65 423.46 1496.91 423 1495.47 422.08C1494.03 421.16 1492.93 419.88 1492.17 418.24C1491.42 416.587 1491.05 414.673 1491.05 412.5C1491.05 410.367 1491.43 408.473 1492.19 406.82C1492.95 405.167 1494.01 403.867 1495.39 402.92C1496.76 401.973 1498.38 401.5 1500.25 401.5C1502.02 401.5 1503.55 401.92 1504.83 402.76C1506.11 403.587 1507.09 404.773 1507.77 406.32C1508.46 407.853 1508.81 409.687 1508.81 411.82C1508.81 412.18 1508.8 412.52 1508.79 412.84C1508.77 413.147 1508.75 413.42 1508.73 413.66H1494.57ZM1500.29 404.26C1498.73 404.26 1497.42 404.813 1496.37 405.92C1495.33 407.027 1494.73 408.74 1494.59 411.06H1505.57C1505.53 408.807 1505.03 407.113 1504.09 405.98C1503.14 404.833 1501.87 404.26 1500.29 404.26Z" fill="url(#paint3_linear_633_14)"/>
<path d="M1157.85 414.811C1159.4 413.24 1159.38 410.707 1157.81 409.155L1132.2 383.852C1130.63 382.299 1128.1 382.314 1126.55 383.885C1124.99 385.457 1125.01 387.989 1126.58 389.542L1149.34 412.034L1126.85 434.796C1125.3 436.368 1125.31 438.9 1126.89 440.453C1128.46 442.006 1130.99 441.991 1132.54 440.419L1157.85 414.811ZM319.024 421L1155.02 416L1154.98 408L318.976 413L319.024 421Z" fill="#505050"/>
<rect x="1353" y="627" width="508" height="402" rx="20" fill="#323232"/>
<path d="M1417.71 827.512C1417.71 830.84 1417.25 833.792 1416.34 836.368C1415.44 838.928 1414.09 840.936 1412.28 842.392C1410.48 843.832 1408.23 844.552 1405.54 844.552C1402.87 844.552 1400.62 843.848 1398.8 842.44C1396.99 841.016 1395.63 839.032 1394.72 836.488C1393.82 833.944 1393.37 830.968 1393.37 827.56C1393.37 824.216 1393.82 821.256 1394.72 818.68C1395.63 816.104 1396.99 814.088 1398.8 812.632C1400.62 811.16 1402.87 810.424 1405.54 810.424C1408.23 810.424 1410.48 811.136 1412.28 812.56C1414.09 813.984 1415.44 815.976 1416.34 818.536C1417.25 821.096 1417.71 824.088 1417.71 827.512ZM1413.34 827.512C1413.34 823.112 1412.73 819.744 1411.52 817.408C1410.32 815.072 1408.32 813.904 1405.54 813.904C1402.76 813.904 1400.76 815.08 1399.54 817.432C1398.34 819.784 1397.74 823.16 1397.74 827.56C1397.74 831.96 1398.36 835.312 1399.61 837.616C1400.86 839.904 1402.84 841.048 1405.54 841.048C1408.32 841.048 1410.32 839.896 1411.52 837.592C1412.73 835.272 1413.34 831.912 1413.34 827.512ZM1439.67 808.048C1441.03 808.048 1442.27 808.168 1443.37 808.408C1444.47 808.648 1445.52 808.984 1446.51 809.416L1445.22 812.416C1444.4 812.064 1443.54 811.8 1442.63 811.624C1441.71 811.448 1440.77 811.36 1439.79 811.36C1438.03 811.36 1436.71 811.704 1435.81 812.392C1434.93 813.08 1434.49 814.136 1434.49 815.56V820.696H1443.06L1442.63 823.864H1434.49V844H1430.46V823.864H1424.43V820.696H1430.46V815.656C1430.46 814.088 1430.86 812.736 1431.66 811.6C1432.47 810.464 1433.58 809.592 1434.97 808.984C1436.36 808.36 1437.93 808.048 1439.67 808.048ZM1468.46 808.048C1469.82 808.048 1471.05 808.168 1472.15 808.408C1473.26 808.648 1474.3 808.984 1475.3 809.416L1474 812.416C1473.18 812.064 1472.32 811.8 1471.41 811.624C1470.5 811.448 1469.55 811.36 1468.58 811.36C1466.82 811.36 1465.49 811.704 1464.59 812.392C1463.71 813.08 1463.27 814.136 1463.27 815.56V820.696H1471.84L1471.41 823.864H1463.27V844H1459.24V823.864H1453.22V820.696H1459.24V815.656C1459.24 814.088 1459.64 812.736 1460.44 811.6C1461.26 810.464 1462.36 809.592 1463.75 808.984C1465.14 808.36 1466.71 808.048 1468.46 808.048ZM1490.9 841.216C1492.84 841.216 1494.36 840.856 1495.48 840.136C1496.62 839.4 1497.19 838.424 1497.19 837.208C1497.19 836.44 1497.04 835.776 1496.76 835.216C1496.48 834.656 1495.92 834.152 1495.05 833.704C1494.19 833.256 1492.86 832.808 1491.07 832.36C1489.32 831.928 1487.8 831.432 1486.51 830.872C1485.23 830.296 1484.23 829.552 1483.51 828.64C1482.8 827.728 1482.45 826.544 1482.45 825.088C1482.45 823.664 1482.85 822.44 1483.65 821.416C1484.47 820.376 1485.6 819.584 1487.04 819.04C1488.48 818.48 1490.15 818.2 1492.05 818.2C1494.08 818.2 1495.85 818.472 1497.36 819.016C1498.88 819.544 1500.16 820.2 1501.22 820.984L1499.44 823.72C1498.48 823.064 1497.43 822.528 1496.28 822.112C1495.12 821.68 1493.73 821.464 1492.1 821.464C1490.12 821.464 1488.71 821.776 1487.88 822.4C1487.04 823.008 1486.63 823.8 1486.63 824.776C1486.63 825.512 1486.83 826.128 1487.23 826.624C1487.64 827.104 1488.34 827.544 1489.32 827.944C1490.29 828.328 1491.64 828.752 1493.35 829.216C1495 829.648 1496.43 830.168 1497.64 830.776C1498.88 831.384 1499.84 832.184 1500.52 833.176C1501.21 834.168 1501.56 835.448 1501.56 837.016C1501.56 838.808 1501.04 840.264 1500.02 841.384C1499 842.488 1497.67 843.296 1496.04 843.808C1494.42 844.304 1492.71 844.552 1490.9 844.552C1488.61 844.552 1486.66 844.224 1485.04 843.568C1483.44 842.896 1482.1 842.088 1481.01 841.144L1483.32 838.48C1484.31 839.296 1485.44 839.96 1486.72 840.472C1488.02 840.968 1489.41 841.216 1490.9 841.216ZM1522.51 841.072C1523.78 841.072 1524.95 840.864 1526.04 840.448C1527.15 840.032 1528.16 839.504 1529.09 838.864L1531.06 841.504C1529.95 842.448 1528.63 843.192 1527.07 843.736C1525.52 844.28 1524 844.552 1522.51 844.552C1520 844.552 1517.86 844.016 1516.08 842.944C1514.32 841.856 1512.98 840.336 1512.05 838.384C1511.12 836.416 1510.66 834.112 1510.66 831.472C1510.66 828.944 1511.12 826.68 1512.05 824.68C1512.99 822.664 1514.35 821.08 1516.11 819.928C1517.88 818.776 1520.03 818.2 1522.56 818.2C1524.18 818.2 1525.69 818.448 1527.1 818.944C1528.52 819.424 1529.83 820.152 1531.01 821.128L1529.04 823.816C1527.97 823.064 1526.89 822.504 1525.8 822.136C1524.73 821.752 1523.63 821.56 1522.51 821.56C1520.34 821.56 1518.55 822.376 1517.14 824.008C1515.73 825.64 1515.03 828.128 1515.03 831.472C1515.03 833.712 1515.35 835.544 1515.99 836.968C1516.64 838.376 1517.53 839.416 1518.65 840.088C1519.79 840.744 1521.07 841.072 1522.51 841.072ZM1540.11 844V840.904H1544.05V821.824H1540.11V818.728H1547.12L1547.86 824.704C1548.84 822.624 1550.02 821.016 1551.41 819.88C1552.81 818.744 1554.65 818.176 1556.93 818.176C1557.64 818.176 1558.26 818.232 1558.81 818.344C1559.37 818.44 1559.93 818.568 1560.51 818.728L1559.33 822.328C1558.81 822.184 1558.33 822.08 1557.89 822.016C1557.46 821.936 1556.97 821.896 1556.41 821.896C1554.47 821.896 1552.81 822.584 1551.41 823.96C1550.02 825.336 1548.91 827.416 1548.08 830.2V840.904H1553.21V844H1540.11ZM1556.62 827.272V821.776L1557.03 818.728H1560.51L1559.93 827.272H1556.62ZM1571.82 832.792C1571.9 834.744 1572.28 836.344 1572.95 837.592C1573.62 838.824 1574.51 839.736 1575.61 840.328C1576.72 840.904 1577.92 841.192 1579.21 841.192C1580.51 841.192 1581.68 841 1582.72 840.616C1583.77 840.232 1584.85 839.664 1585.96 838.912L1587.85 841.576C1586.67 842.504 1585.32 843.232 1583.8 843.76C1582.29 844.288 1580.75 844.552 1579.16 844.552C1576.72 844.552 1574.63 844 1572.9 842.896C1571.17 841.792 1569.85 840.256 1568.94 838.288C1568.04 836.304 1567.6 834.008 1567.6 831.4C1567.6 828.84 1568.05 826.568 1568.96 824.584C1569.88 822.6 1571.16 821.04 1572.8 819.904C1574.45 818.768 1576.4 818.2 1578.64 818.2C1580.76 818.2 1582.6 818.704 1584.13 819.712C1585.67 820.704 1586.84 822.128 1587.66 823.984C1588.49 825.824 1588.91 828.024 1588.91 830.584C1588.91 831.016 1588.9 831.424 1588.88 831.808C1588.87 832.176 1588.84 832.504 1588.81 832.792H1571.82ZM1578.68 821.512C1576.81 821.512 1575.24 822.176 1573.98 823.504C1572.73 824.832 1572.02 826.888 1571.84 829.672H1585.02C1584.97 826.968 1584.38 824.936 1583.24 823.576C1582.11 822.2 1580.59 821.512 1578.68 821.512ZM1600.6 832.792C1600.68 834.744 1601.06 836.344 1601.73 837.592C1602.4 838.824 1603.29 839.736 1604.39 840.328C1605.5 840.904 1606.7 841.192 1607.99 841.192C1609.29 841.192 1610.46 841 1611.5 840.616C1612.55 840.232 1613.63 839.664 1614.74 838.912L1616.63 841.576C1615.45 842.504 1614.1 843.232 1612.58 843.76C1611.07 844.288 1609.53 844.552 1607.95 844.552C1605.5 844.552 1603.41 844 1601.68 842.896C1599.95 841.792 1598.63 840.256 1597.72 838.288C1596.83 836.304 1596.38 834.008 1596.38 831.4C1596.38 828.84 1596.83 826.568 1597.75 824.584C1598.66 822.6 1599.94 821.04 1601.59 819.904C1603.23 818.768 1605.18 818.2 1607.42 818.2C1609.55 818.2 1611.38 818.704 1612.91 819.712C1614.45 820.704 1615.63 822.128 1616.44 823.984C1617.27 825.824 1617.69 828.024 1617.69 830.584C1617.69 831.016 1617.68 831.424 1617.67 831.808C1617.65 832.176 1617.63 832.504 1617.59 832.792H1600.6ZM1607.47 821.512C1605.59 821.512 1604.03 822.176 1602.76 823.504C1601.51 824.832 1600.8 826.888 1600.63 829.672H1613.8C1613.75 826.968 1613.16 824.936 1612.03 823.576C1610.89 822.2 1609.37 821.512 1607.47 821.512ZM1626.21 844V818.728H1629.65L1629.96 822.232C1630.98 820.936 1632.26 819.944 1633.8 819.256C1635.35 818.552 1636.85 818.2 1638.31 818.2C1640.79 818.2 1642.59 818.856 1643.71 820.168C1644.85 821.48 1645.41 823.304 1645.41 825.64V844H1641.38V828.616C1641.38 826.888 1641.29 825.496 1641.09 824.44C1640.9 823.368 1640.5 822.592 1639.89 822.112C1639.29 821.616 1638.34 821.368 1637.06 821.368C1636.07 821.368 1635.13 821.584 1634.25 822.016C1633.39 822.448 1632.61 822.992 1631.93 823.648C1631.25 824.288 1630.69 824.936 1630.25 825.592V844H1626.21ZM1671.68 834.712C1671.68 833.048 1671.35 831.768 1670.69 830.872C1670.05 829.96 1669.2 829.328 1668.12 828.976C1667.05 828.624 1665.88 828.448 1664.6 828.448H1658.96V840.568H1664.4C1665.22 840.568 1666.05 840.488 1666.9 840.328C1667.75 840.168 1668.53 839.88 1669.25 839.464C1669.99 839.048 1670.57 838.464 1671 837.712C1671.45 836.944 1671.68 835.944 1671.68 834.712ZM1670.36 819.496C1670.36 817.624 1669.77 816.296 1668.6 815.512C1667.45 814.712 1665.88 814.312 1663.88 814.312H1658.96V825.016H1664.28C1666.24 825.016 1667.73 824.584 1668.77 823.72C1669.83 822.84 1670.36 821.432 1670.36 819.496ZM1676.07 834.568C1676.07 836.36 1675.71 837.864 1674.99 839.08C1674.28 840.296 1673.33 841.264 1672.13 841.984C1670.95 842.704 1669.62 843.224 1668.15 843.544C1666.69 843.848 1665.2 844 1663.68 844H1654.8V810.952H1662.94C1664.4 810.952 1665.81 811.088 1667.19 811.36C1668.58 811.616 1669.83 812.064 1670.93 812.704C1672.05 813.328 1672.95 814.176 1673.62 815.248C1674.29 816.32 1674.63 817.664 1674.63 819.28C1674.63 820.704 1674.33 821.912 1673.74 822.904C1673.16 823.88 1672.4 824.664 1671.46 825.256C1670.53 825.848 1669.54 826.264 1668.48 826.504C1669.72 826.696 1670.91 827.072 1672.06 827.632C1673.23 828.176 1674.19 829.008 1674.94 830.128C1675.69 831.232 1676.07 832.712 1676.07 834.568ZM1687.81 818.728V836.632C1687.81 838.296 1688.15 839.496 1688.84 840.232C1689.53 840.968 1690.6 841.336 1692.06 841.336C1693.45 841.336 1694.76 840.944 1695.99 840.16C1697.24 839.36 1698.21 838.416 1698.9 837.328V818.728H1702.93V844H1699.5L1699.16 840.592C1698.17 841.872 1696.95 842.856 1695.49 843.544C1694.03 844.216 1692.56 844.552 1691.07 844.552C1688.63 844.552 1686.79 843.904 1685.58 842.608C1684.38 841.296 1683.78 839.464 1683.78 837.112V818.728H1687.81ZM1727.49 808.048C1728.85 808.048 1730.08 808.168 1731.18 808.408C1732.29 808.648 1733.33 808.984 1734.33 809.416L1733.03 812.416C1732.21 812.064 1731.35 811.8 1730.44 811.624C1729.53 811.448 1728.58 811.36 1727.61 811.36C1725.85 811.36 1724.52 811.704 1723.62 812.392C1722.74 813.08 1722.3 814.136 1722.3 815.56V820.696H1730.87L1730.44 823.864H1722.3V844H1718.27V823.864H1712.25V820.696H1718.27V815.656C1718.27 814.088 1718.67 812.736 1719.47 811.6C1720.29 810.464 1721.39 809.592 1722.78 808.984C1724.17 808.36 1725.74 808.048 1727.49 808.048ZM1756.27 808.048C1757.63 808.048 1758.86 808.168 1759.96 808.408C1761.07 808.648 1762.12 808.984 1763.11 809.416L1761.81 812.416C1761 812.064 1760.13 811.8 1759.22 811.624C1758.31 811.448 1757.36 811.36 1756.39 811.36C1754.63 811.36 1753.3 811.704 1752.4 812.392C1751.52 813.08 1751.08 814.136 1751.08 815.56V820.696H1759.65L1759.22 823.864H1751.08V844H1747.05V823.864H1741.03V820.696H1747.05V815.656C1747.05 814.088 1747.45 812.736 1748.25 811.6C1749.07 810.464 1750.17 809.592 1751.56 808.984C1752.96 808.36 1754.52 808.048 1756.27 808.048ZM1773.29 832.792C1773.37 834.744 1773.74 836.344 1774.42 837.592C1775.09 838.824 1775.98 839.736 1777.08 840.328C1778.18 840.904 1779.38 841.192 1780.68 841.192C1781.98 841.192 1783.14 841 1784.18 840.616C1785.24 840.232 1786.32 839.664 1787.42 838.912L1789.32 841.576C1788.14 842.504 1786.78 843.232 1785.26 843.76C1783.76 844.288 1782.22 844.552 1780.63 844.552C1778.18 844.552 1776.1 844 1774.37 842.896C1772.64 841.792 1771.32 840.256 1770.41 838.288C1769.51 836.304 1769.06 834.008 1769.06 831.4C1769.06 828.84 1769.52 826.568 1770.43 824.584C1771.34 822.6 1772.62 821.04 1774.27 819.904C1775.92 818.768 1777.86 818.2 1780.1 818.2C1782.23 818.2 1784.06 818.704 1785.6 819.712C1787.14 820.704 1788.31 822.128 1789.13 823.984C1789.96 825.824 1790.38 828.024 1790.38 830.584C1790.38 831.016 1790.37 831.424 1790.35 831.808C1790.34 832.176 1790.31 832.504 1790.28 832.792H1773.29ZM1780.15 821.512C1778.28 821.512 1776.71 822.176 1775.45 823.504C1774.2 824.832 1773.49 826.888 1773.31 829.672H1786.49C1786.44 826.968 1785.85 824.936 1784.71 823.576C1783.58 822.2 1782.06 821.512 1780.15 821.512ZM1799.14 844V840.904H1803.08V821.824H1799.14V818.728H1806.15L1806.89 824.704C1807.87 822.624 1809.05 821.016 1810.45 819.88C1811.84 818.744 1813.68 818.176 1815.97 818.176C1816.67 818.176 1817.29 818.232 1817.84 818.344C1818.4 818.44 1818.97 818.568 1819.54 818.728L1818.37 822.328C1817.84 822.184 1817.36 822.08 1816.93 822.016C1816.49 821.936 1816 821.896 1815.44 821.896C1813.5 821.896 1811.84 822.584 1810.45 823.96C1809.05 825.336 1807.94 827.416 1807.11 830.2V840.904H1812.25V844H1799.14ZM1815.65 827.272V821.776L1816.06 818.728H1819.54L1818.97 827.272H1815.65Z" fill="url(#paint4_linear_633_14)"/>
<circle cx="1606.5" cy="370.5" r="65.5" fill="#505050"/>
<path d="M1610.13 352.269V368.628H1626.25V374.409H1610.13V390.645H1603.7V374.409H1587.79V368.628H1603.7V352.269H1610.13Z" fill="#9CC1E4"/>
<path d="M1607.21 626.869C1608.8 628.408 1611.33 628.372 1612.87 626.787L1637.95 600.965C1639.49 599.381 1639.46 596.848 1637.87 595.309C1636.29 593.77 1633.75 593.806 1632.22 595.391L1609.92 618.344L1586.97 596.047C1585.38 594.507 1582.85 594.544 1581.31 596.129C1579.77 597.713 1579.81 600.246 1581.39 601.785L1607.21 626.869ZM1603 417.058L1606 624.058L1614 623.942L1611 416.942L1603 417.058Z" fill="#505050"/>
<defs>
<linearGradient id="paint0_linear_633_14" x1="960" y1="0" x2="960" y2="1080" gradientUnits="userSpaceOnUse">
<stop stop-color="#323232"/>
<stop offset="1"/>
</linearGradient>
<linearGradient id="paint1_linear_633_14" x1="486.001" y1="38" x2="486.001" y2="943" gradientUnits="userSpaceOnUse">
<stop stop-color="#B32BD5"/>
<stop offset="1" stop-color="#DA3C8E"/>
</linearGradient>
<linearGradient id="paint2_linear_633_14" x1="1351" y1="281" x2="1351" y2="333" gradientUnits="userSpaceOnUse">
<stop stop-color="#B32BD5"/>
<stop offset="1" stop-color="#DA3C8E"/>
</linearGradient>
<linearGradient id="paint3_linear_633_14" x1="1344" y1="384" x2="1344" y2="436" gradientUnits="userSpaceOnUse">
<stop stop-color="#B32BD5"/>
<stop offset="1" stop-color="#DA3C8E"/>
</linearGradient>
<linearGradient id="paint4_linear_633_14" x1="1607" y1="796" x2="1607" y2="859" gradientUnits="userSpaceOnUse">
<stop stop-color="#B32BD5"/>
<stop offset="1" stop-color="#DA3C8E"/>
</linearGradient>
</defs>
</svg>
