<svg width="852" height="852" viewBox="0 0 852 852" fill="none" xmlns="http://www.w3.org/2000/svg">
<rect x="106.521" y="250.186" width="500" height="500" transform="rotate(-30 106.521 250.186)" fill="#161616"/>
<path fill-rule="evenodd" clip-rule="evenodd" d="M61.5625 392.315L294.259 795.356L380.861 745.356L98.165 255.712L61.5625 392.315Z" fill="#161616"/>
<path fill-rule="evenodd" clip-rule="evenodd" d="M794.815 441.602L266.657 746.534L316.739 833.278L758.152 578.429L794.815 441.602Z" fill="#161616"/>
<rect x="350.293" y="687.949" width="10" height="162.962" transform="rotate(15 350.293 687.949)" fill="#2C2C2C"/>
<rect x="176.188" y="268.854" width="200" height="200" transform="rotate(-30 176.188 268.854)" fill="#161616"/>
<path fill-rule="evenodd" clip-rule="evenodd" d="M295.275 263.607L329.262 243.985L340.613 263.646L348.8 277.826C359.419 267.552 361.877 250.476 354.344 237.428C345.545 222.189 325.811 217.11 310.267 226.084C296.803 233.857 290.899 249.623 295.275 263.607Z" fill="white"/>
<path fill-rule="evenodd" clip-rule="evenodd" d="M317.656 301.322C327.843 311.118 343.946 314.027 356.767 306.625C372.311 297.65 377.143 276.917 368.344 261.677C360.811 248.629 345.261 243.029 331.188 247.322L351.188 281.963L317.656 301.322Z" fill="white"/>
<rect x="217.169" y="279.834" width="25" height="140" transform="rotate(-30 217.169 279.834)" fill="white"/>
<rect x="331.762" y="248.315" width="25" height="31" transform="rotate(-30 331.762 248.315)" fill="white"/>
<path fill-rule="evenodd" clip-rule="evenodd" d="M229.669 301.485L217.169 279.834L312.865 224.584L325.365 246.235L229.669 301.485Z" fill="white"/>
<path fill-rule="evenodd" clip-rule="evenodd" d="M263.669 360.375L251.169 338.724L346.865 283.474L359.365 305.125L263.669 360.375Z" fill="white"/>
<path fill-rule="evenodd" clip-rule="evenodd" d="M344.093 296.855L332.356 318.929L382.904 345.805L408.434 331.066L344.093 296.855Z" fill="white"/>
<path fill-rule="evenodd" clip-rule="evenodd" d="M329.628 242.619L315.771 250.619L316.271 251.485C323.446 247.343 332.62 249.801 336.762 256.975L337.628 256.475L329.628 242.619Z" fill="white"/>
<path fill-rule="evenodd" clip-rule="evenodd" d="M352.128 281.59L338.271 289.59L337.771 288.724C344.946 284.582 347.404 275.408 343.262 268.233L344.128 267.733L352.128 281.59Z" fill="white"/>
<rect x="348.527" y="169.354" width="200" height="200" transform="rotate(-30 348.527 169.354)" fill="#161616"/>
<path fill-rule="evenodd" clip-rule="evenodd" d="M497.014 187.548C503 187.749 509.132 186.325 514.724 183.096C530.479 174 535.976 154.025 527.002 138.48C518.027 122.936 497.979 117.709 482.224 126.805C468.735 134.593 462.765 150.356 466.96 164.485L501.601 144.485L519.101 174.796L497.014 187.548V187.548Z" fill="#F05252"/>
<path fill-rule="evenodd" clip-rule="evenodd" d="M488.495 195.93C498.54 203.076 512.232 204.165 523.605 197.598C539.15 188.624 544.476 168.747 535.501 153.203C526.527 137.658 506.65 132.332 491.105 141.307C486.198 144.14 482.309 148.06 479.567 152.587L500.404 140.557L521.404 176.93L488.495 195.93Z" fill="#F05252"/>
<path fill-rule="evenodd" clip-rule="evenodd" d="M526.014 237.777C532 237.978 538.133 236.554 543.725 233.326C559.48 224.23 564.977 204.254 556.002 188.71C547.027 173.165 526.98 167.938 511.225 177.034C498.051 184.64 492.049 199.852 495.683 213.72L530.324 193.72L548.324 224.897L526.014 237.777Z" fill="#F05252"/>
<path fill-rule="evenodd" clip-rule="evenodd" d="M517.495 246.159C527.54 253.305 541.232 254.394 552.605 247.828C568.15 238.853 573.476 218.977 564.501 203.432C555.527 187.887 535.65 182.562 520.105 191.536C515.198 194.37 511.309 198.29 508.567 202.817L532.002 189.286L553.002 225.659L517.495 246.159Z" fill="#F05252"/>
<path fill-rule="evenodd" clip-rule="evenodd" d="M505.601 151.413L527.251 138.913L534.751 151.903L513.101 164.403L505.601 151.413Z" fill="#F05252"/>
<path fill-rule="evenodd" clip-rule="evenodd" d="M534.601 201.643L556.251 189.143L564.751 203.865L543.101 216.365L534.601 201.643Z" fill="#F05252"/>
<path fill-rule="evenodd" clip-rule="evenodd" d="M415.489 165.334L482.173 126.834L494.673 148.485L427.989 186.985L415.489 165.334Z" fill="#F05252"/>
<path fill-rule="evenodd" clip-rule="evenodd" d="M472.989 264.927L542.271 224.927L554.771 246.578L485.489 286.578L472.989 264.927Z" fill="#F05252"/>
<path fill-rule="evenodd" clip-rule="evenodd" d="M456.979 207.198L513.271 174.698L525.771 196.348L469.479 228.848L456.979 207.198Z" fill="#F05252"/>
<path fill-rule="evenodd" clip-rule="evenodd" d="M432.091 193.854L406.011 208.911C405.926 208.769 405.841 208.625 405.758 208.48C396.783 192.936 402.109 173.059 417.654 164.084C430.963 156.401 447.447 159.2 457.546 169.92L436.649 181.985L436.655 181.996C436.508 182.072 436.361 182.151 436.216 182.235C432.114 184.603 430.446 189.568 432.091 193.854Z" fill="#F05252"/>
<path fill-rule="evenodd" clip-rule="evenodd" d="M469.091 257.94L443.011 272.997C443.092 273.142 443.174 273.287 443.258 273.432C452.232 288.977 472.109 294.302 487.654 285.328C500.963 277.644 506.781 261.968 502.546 247.862L481.649 259.927L481.642 259.916C481.503 260.006 481.361 260.093 481.216 260.177C477.114 262.545 471.98 261.507 469.091 257.94Z" fill="#F05252"/>
<path fill-rule="evenodd" clip-rule="evenodd" d="M509.101 157.475L500.851 143.186L487.86 150.686L488.61 151.985C495.785 147.843 504.959 150.301 509.101 157.475V157.475Z" fill="#F05252"/>
<path fill-rule="evenodd" clip-rule="evenodd" d="M510.101 159.208L519.351 175.229L506.36 182.729L504.61 179.698C511.785 175.556 514.243 166.382 510.101 159.208Z" fill="#F05252"/>
<path fill-rule="evenodd" clip-rule="evenodd" d="M537.601 206.839L538.467 206.339L530.967 193.348L517.11 201.348C524.285 197.206 533.459 199.664 537.601 206.839Z" fill="#F05252"/>
<path fill-rule="evenodd" clip-rule="evenodd" d="M539.101 209.437L539.967 208.937L549.217 224.958L535.36 232.958L533.61 229.927C540.785 225.785 543.243 216.611 539.101 209.437Z" fill="#F05252"/>
<rect x="275.688" y="441.192" width="200" height="200" transform="rotate(-30 275.688 441.192)" fill="#161616"/>
<rect x="314.938" y="453.173" width="25" height="140" transform="rotate(-30 314.938 453.173)" fill="white"/>
<rect x="405.87" y="400.673" width="25" height="105" transform="rotate(60 405.87 400.673)" fill="white"/>
<rect x="432.888" y="451.47" width="25" height="102.5" transform="rotate(60 432.888 451.47)" fill="white"/>
<rect x="465.968" y="498.766" width="25" height="108" transform="rotate(60 465.968 498.766)" fill="white"/>
<path fill-rule="evenodd" clip-rule="evenodd" d="M482.431 463.281C491.406 478.825 486.08 498.702 470.535 507.676C462.553 512.285 453.429 513.123 445.225 510.742L474.398 493.899L465.148 477.878L457.898 465.321L422.391 485.821C419.773 472.555 425.673 458.522 438.035 451.385C453.58 442.41 473.456 447.736 482.431 463.281Z" fill="white"/>
<path fill-rule="evenodd" clip-rule="evenodd" d="M489.931 476.271C498.906 491.815 493.561 511.702 477.994 520.69C464.666 528.385 448.165 525.596 438.062 514.878L472.01 495.278L454.51 464.967L432.965 477.406C435.732 472.151 439.969 467.588 445.494 464.399C461.061 455.411 480.956 460.726 489.931 476.271Z" fill="white"/>
<path fill-rule="evenodd" clip-rule="evenodd" d="M452.431 411.319C461.406 426.864 456.061 446.751 440.494 455.739C433.645 459.693 425.958 460.879 418.732 459.642L445.685 444.082L429.435 415.936L393.062 436.936C388.831 422.827 394.666 407.142 407.994 399.447C423.561 390.459 443.456 395.775 452.431 411.319Z" fill="white"/>
<path fill-rule="evenodd" clip-rule="evenodd" d="M460.993 426.005C469.968 441.55 464.642 461.426 449.098 470.401C437.724 476.967 424.032 475.878 413.987 468.733L446.03 450.233L427.03 417.324L402.104 431.715C404.559 424.545 409.518 418.197 416.598 414.109C432.142 405.135 452.019 410.461 460.993 426.005Z" fill="white"/>
<path fill-rule="evenodd" clip-rule="evenodd" d="M428.785 415.156L413.196 424.156L413.699 425.026C413.811 424.957 413.925 424.89 414.04 424.824C421.214 420.681 430.388 423.14 434.53 430.314L436.785 429.012L428.785 415.156Z" fill="white"/>
<path fill-rule="evenodd" clip-rule="evenodd" d="M435.78 432.479C439.923 439.654 437.464 448.828 430.29 452.97L431.04 454.269L444.896 446.269L436.396 431.546L435.523 432.05C435.611 432.192 435.697 432.334 435.78 432.479Z" fill="white"/>
<path fill-rule="evenodd" clip-rule="evenodd" d="M457.785 465.385L442.196 474.385L442.449 474.823C442.561 474.754 442.675 474.686 442.79 474.62C449.819 470.562 458.768 472.839 463.023 479.682L465.285 478.376L457.785 465.385Z" fill="white"/>
<path fill-rule="evenodd" clip-rule="evenodd" d="M464.53 482.276C468.673 489.45 466.214 498.624 459.04 502.766L460.04 504.498L473.896 496.498L465.396 481.776L464.53 482.276Z" fill="white"/>
<rect x="431.03" y="424.252" width="25" height="18" transform="rotate(-30 431.03 424.252)" fill="white"/>
<rect x="462.262" y="474.348" width="23" height="17" transform="rotate(-30 462.262 474.348)" fill="white"/>
<rect x="448.027" y="341.692" width="200" height="200" transform="rotate(-30 448.027 341.692)" fill="#161616"/>
<rect x="489.008" y="352.673" width="25" height="140" transform="rotate(-30 489.008 352.673)" fill="white"/>
<rect x="667.864" y="382.312" width="25" height="140" transform="rotate(60 667.864 382.312)" fill="white"/>
</svg>
